<?xml version="1.0" standalone="no"?>
<!DOCTYPE svg PUBLIC "-//W3C//DTD SVG 1.1//EN" "http://www.w3.org/Graphics/SVG/1.1/DTD/svg11.dtd" >
<svg xmlns="http://www.w3.org/2000/svg">
<metadata></metadata>
<defs>
<font id="letter_gothic_stdbold" horiz-adv-x="1228" >
<font-face units-per-em="2048" ascent="1520" descent="-528" />
<missing-glyph horiz-adv-x="500" />
<glyph />
<glyph />
<glyph unicode="&#xd;" />
<glyph unicode=" " />
<glyph unicode="!" d="M451 131q0 67 49 112.5t116 45.5t115.5 -45.5t48.5 -112.5t-48.5 -113.5t-115.5 -46.5q-68 0 -116.5 46.5t-48.5 113.5zM514 1475h201l-29 -1026h-137z" />
<glyph unicode="&#x22;" d="M231 1208v267h283v-267l-86 -264h-111zM715 1208v267h282v-267l-86 -264h-110z" />
<glyph unicode="#" d="M33 471l30 135h267l49 271h-268l24 135h271l116 637h154l-340 -1846h-154l123 668h-272zM545 -197l340 1846h153l-116 -637h272l-27 -135h-272l-49 -271h274l-24 -135h-275l-123 -668h-153z" />
<glyph unicode="$" d="M207 291l94 110q61 -57 115.5 -91t115.5 -44v463q-119 41 -196 121q-86 93 -86 211q0 119 81.5 202.5t200.5 104.5v152h154v-150q156 -21 295 -143l-90 -117q-104 104 -205 125v-406q142 -52 220.5 -138.5t78.5 -229.5q0 -138 -81 -224t-218 -108v-190h-154v190 q-171 11 -325 162zM403 1057q0 -57 38.5 -105.5t93.5 -77.5v355q-70 -37 -101 -71t-31 -101zM686 264q67 21 106 71t39 122q0 150 -145 227v-420z" />
<glyph unicode="%" d="M102 1118q0 96 34.5 182t108.5 144.5t173 58.5q102 0 162.5 -58.5t60.5 -160.5q0 -57 -12.5 -114t-38.5 -109t-62.5 -92t-89 -64t-114.5 -24q-109 0 -165.5 64t-56.5 173zM137 -29l774 1532h148l-774 -1532h-148zM248 1098q0 -50 16.5 -77.5t63.5 -27.5q43 0 77 32t53 80 t28.5 95t9.5 86q0 44 -17.5 74.5t-58.5 30.5q-46 0 -81 -31t-54 -78.5t-28 -94.5t-9 -89zM567 209q0 96 34.5 182t108.5 144.5t173 58.5q102 0 162.5 -58.5t60.5 -160.5q0 -72 -20.5 -142.5t-58.5 -129.5t-100 -95.5t-139 -36.5q-109 0 -165 64t-56 174zM713 188 q0 -104 80 -104q43 0 77 32t53 80t28.5 95t9.5 86q0 104 -76 104q-45 0 -80 -31t-54 -78.5t-28.5 -95t-9.5 -88.5z" />
<glyph unicode="&#x26;" d="M162 307q0 73 19 141t58 132.5t75.5 112t93.5 112.5q-33 54 -52 87.5t-42 83t-33.5 96.5t-10.5 95q0 88 27.5 156.5t70.5 105.5t87.5 55.5t85.5 18.5q118 0 190 -84t72 -202q0 -64 -15.5 -119.5t-53 -114t-62.5 -90.5t-82 -98l241 -389q9 46 15 102q8 86 8 246h150 q-2 -154 -15.5 -269.5t-54.5 -220.5l178 -203l-104 -108l-156 180q-137 -162 -340 -162q-156 0 -253 90.5t-97 245.5zM315 309q0 -95 51.5 -152t145.5 -57q162 0 258 146l-281 426q-82 -99 -128 -183.5t-46 -179.5zM424 1188q0 -71 21.5 -132.5t64.5 -133.5q9 14 37 54.5 t40 60.5t30 54.5t25 66.5t7 67q0 32 -10.5 65t-35.5 58.5t-60 25.5q-41 0 -69.5 -33t-39 -73t-10.5 -80z" />
<glyph unicode="'" d="M473 1208v267h283v-267l-86 -266h-111z" />
<glyph unicode="(" d="M358 680q0 256 104 482.5t306 357.5l74 -103q-172 -122 -251 -314t-79 -423t79 -423t251 -316l-74 -101q-136 86 -230 224.5t-137 293.5t-43 322z" />
<glyph unicode=")" d="M387 -59q172 122 251 314.5t79 424.5q0 230 -79 422.5t-251 314.5l74 103q202 -131 305.5 -357t103.5 -483q0 -167 -42.5 -321.5t-136.5 -293t-230 -225.5z" />
<glyph unicode="*" d="M131 1071l41 133l369 -108v379h145v-379l369 108l43 -133l-379 -108l237 -299l-108 -86l-234 292l-227 -292l-113 86l236 299z" />
<glyph unicode="+" d="M51 670v135h492v485h143v-485h492v-135h-492v-486h-143v486h-492z" />
<glyph unicode="," d="M471 117q0 70 46 114.5t116 44.5q74 0 122 -55.5t48 -130.5q0 -62 -29.5 -117t-78.5 -94.5t-105 -66.5t-115 -41v139q79 16 131 65q-58 5 -96.5 44.5t-38.5 97.5z" />
<glyph unicode="-" d="M348 670v129h533v-129h-533z" />
<glyph unicode="." d="M451 131q0 67 49 112.5t116 45.5t115.5 -45.5t48.5 -112.5t-48.5 -113.5t-115.5 -46.5q-68 0 -116.5 46.5t-48.5 113.5z" />
<glyph unicode="/" d="M229 -55l617 1585h153l-616 -1585h-154z" />
<glyph unicode="0" d="M185.5 816q-2.5 38 2.5 87.5t10 105t20.5 114t35 113t53.5 103.5t75.5 85.5t101 57.5t130.5 21q88 0 157.5 -33t113.5 -80t76 -123t47 -137.5t23.5 -149t9.5 -132.5t1 -111v-8q0 -68 -1 -111t-9 -130.5t-23 -147.5t-47 -135.5t-76 -122t-114 -79t-158 -32.5 q-69 0 -127.5 21.5t-100 54.5t-74.5 85.5t-53.5 100.5t-35.5 115t-22 113t-10.5 111t-4 92.5t-0.5 72.5v17q2 24 -0.5 62zM340 737q0 -238 26 -363q58 -274 248 -274q45 0 81 14t73.5 55t63 109.5t41.5 185t16 273.5q0 152 -15 266.5t-39.5 184t-60.5 112.5t-74.5 58.5 t-85.5 15.5q-45 0 -82.5 -15.5t-64 -43t-48 -64.5t-34 -79.5t-23 -89t-13.5 -92t-6.5 -88.5t-2.5 -79t0 -64v-22z" />
<glyph unicode="1" d="M256 1264v116l442 140v-1391h265v-129h-695v129h277v1223z" />
<glyph unicode="2" d="M205 0v66q0 96 17 175.5t43.5 140t76.5 123.5t99 110.5t128 115.5q43 36 55 46.5t54.5 48.5t60 58t49.5 58t46 66.5t26 65.5t12 71q0 104 -58 166.5t-161 62.5q-86 0 -146.5 -44.5t-88 -111.5t-31.5 -151h-154q11 195 120.5 315.5t301.5 120.5q166 0 268.5 -95.5 t102.5 -260.5q0 -32 -5.5 -64t-13.5 -58.5t-24.5 -56.5t-29 -51t-36.5 -49.5t-39.5 -45.5t-45 -45t-44 -41.5t-47 -42t-45.5 -40.5l-106 -96q-111 -101 -168.5 -198.5t-63.5 -229.5h672v-129h-825z" />
<glyph unicode="3" d="M143 252l136 80q49 -112 123 -172t188 -60q136 0 221.5 79.5t85.5 213.5q0 115 -52.5 194.5t-139.5 113.5t-197 24v129q129 -6 225 71t96 205q0 106 -75.5 175t-180.5 69q-90 0 -165 -62t-115 -151l-129 74q65 126 176 197t250 71q164 0 278.5 -111.5t114.5 -273.5 q0 -195 -195 -317q125 -55 194 -154t69 -233q0 -201 -132 -322t-335 -121q-148 0 -253.5 72.5t-187.5 208.5z" />
<glyph unicode="4" d="M125 381v100l543 1022h198v-993h211v-129h-211v-381h-153v381h-588zM301 510h412v784h-4z" />
<glyph unicode="5" d="M205 217l119 88q44 -89 120 -147t168 -58q63 0 115.5 31t85.5 81t50.5 109t17.5 119q0 89 -23 159.5t-61 111.5t-81 62.5t-87 21.5q-150 0 -252 -168l-156 30l62 818h659v-129h-522l-41 -517q106 95 246 95q176 0 292.5 -128t116.5 -343q0 -96 -30 -182.5t-84.5 -153.5 t-137 -106.5t-180.5 -39.5q-234 0 -397 246z" />
<glyph unicode="6" d="M195 627q0 177 32 324.5t86 248t126 170t151.5 101.5t163.5 32q131 0 276 -90l-74 -127q-45 31 -66.5 44t-62.5 28.5t-79 15.5q-74 0 -139.5 -40.5t-110.5 -104t-79 -142.5t-51 -154.5t-20 -141.5q69 77 142 113t172 36q74 0 137.5 -25.5t108 -70t76.5 -103t47.5 -125 t15.5 -135.5q0 -96 -27.5 -186t-78.5 -163t-133.5 -117t-184.5 -44q-86 0 -155.5 28t-115 79t-77.5 113.5t-49 139.5t-24 148t-7 148zM358 444q0 -61 15 -119.5t44 -110t80 -83t115 -31.5q74 0 130.5 34t88 90.5t47 120.5t15.5 134q0 63 -13.5 120t-42 105.5t-79 77.5 t-117.5 29q-80 0 -146 -55t-101.5 -138.5t-35.5 -173.5z" />
<glyph unicode="7" d="M190 1346v129h828l-576 -1475h-166l541 1346h-627z" />
<glyph unicode="8" d="M143 401q0 122 57.5 226t164.5 145q-94 81 -133 154t-39 190q0 176 121 281.5t300 105.5q187 0 303.5 -107.5t116.5 -293.5q0 -110 -39.5 -181.5t-130.5 -148.5q107 -41 164 -145t57 -226q0 -188 -123 -309t-348 -121q-119 0 -211.5 35t-148 96t-83.5 136.5t-28 162.5z M297 401q0 -142 87 -221.5t230 -79.5t230.5 79.5t87.5 221.5q0 140 -88.5 220.5t-229.5 80.5t-229 -80.5t-88 -220.5zM346 1087q0 -117 75 -186.5t193 -69.5q124 0 195.5 74t71.5 199q0 124 -71 197t-196 73q-129 0 -198.5 -77.5t-69.5 -209.5z" />
<glyph unicode="9" d="M180 993q0 96 27.5 186t79.5 163t134.5 117t184.5 44q103 0 181.5 -41.5t124 -106t74.5 -155t38.5 -174.5t9.5 -178q0 -211 -46 -380.5t-124 -276.5t-177.5 -163.5t-211.5 -56.5q-131 0 -276 90l73 127q122 -88 209 -88q74 0 139 40.5t110 104t79 143t51 155.5t21 143 q-70 -78 -142.5 -114.5t-171.5 -36.5q-92 0 -167 39t-122 104.5t-72.5 146.5t-25.5 168zM334 995q0 -63 14 -119.5t42.5 -105.5t79 -77.5t116.5 -28.5q120 0 202 113t82 255q0 60 -15 118t-44.5 109.5t-80 83t-114.5 31.5q-74 0 -130.5 -34t-88.5 -90.5t-47.5 -120.5 t-15.5 -134z" />
<glyph unicode=":" d="M451 131q0 67 49 112.5t116 45.5t115.5 -45.5t48.5 -112.5t-48.5 -113.5t-115.5 -46.5q-68 0 -116.5 46.5t-48.5 113.5zM451 825q0 67 49 112.5t116 45.5t115.5 -45.5t48.5 -112.5t-48.5 -113t-115.5 -46q-68 0 -116.5 46t-48.5 113z" />
<glyph unicode=";" d="M471 117q0 70 46 114.5t116 44.5q74 0 122 -55.5t48 -130.5q0 -62 -29.5 -117t-78.5 -94.5t-105 -66.5t-115 -41v139q79 16 131 65q-58 5 -96.5 44.5t-38.5 97.5zM471 825q0 66 49.5 112t116.5 46t115.5 -45.5t48.5 -112.5t-48.5 -113t-115.5 -46q-68 0 -117 46t-49 113z " />
<glyph unicode="&#x3c;" d="M168 737l805 738l86 -107l-682 -631l682 -631l-86 -106z" />
<glyph unicode="=" d="M51 549v135h1127v-135h-1127zM51 791v135h1127v-135h-1127z" />
<glyph unicode="&#x3e;" d="M168 106l682 631l-682 631l86 107l805 -738l-805 -737z" />
<glyph unicode="?" d="M233 1149q8 163 106.5 258.5t262.5 95.5q170 0 270.5 -98.5t100.5 -267.5q0 -94 -31.5 -155.5t-99.5 -121.5q-29 -26 -62.5 -52.5t-48 -38t-28.5 -28t-18.5 -35t-4.5 -47.5v-217h-154v217q0 90 35.5 142.5t147.5 136.5q59 45 84.5 90t25.5 115q0 103 -58.5 167t-160.5 64 q-101 0 -157 -62.5t-56 -162.5h-154zM455 131q0 66 49.5 112t116.5 46t115 -45.5t48 -112.5t-48 -113.5t-115 -46.5q-68 0 -117 46.5t-49 113.5z" />
<glyph unicode="@" d="M-6 608q0 123 26 247.5t81.5 241.5t133.5 207t190.5 144.5t244.5 54.5q108 0 210 -47t181 -128.5t126.5 -201t47.5 -254.5q0 -64 -11 -130.5t-37 -134t-63.5 -120t-95.5 -85.5t-129 -33q-63 0 -97 18.5t-85 71.5q-42 -34 -65 -49.5t-59.5 -28t-80.5 -12.5 q-88 0 -143.5 55.5t-55.5 144.5q0 92 38 198t98 173q100 109 356 109h92l-55 -336q0 -1 -8.5 -49.5t-8.5 -65.5q0 -41 19.5 -70.5t56.5 -29.5q49 0 87 40.5t56.5 101t27.5 116.5t9 102q0 107 -28 194t-71 141t-99.5 90.5t-110 51.5t-104.5 15q-105 0 -194 -47t-148 -122.5 t-100.5 -173t-60 -196.5t-18.5 -195q0 -242 111 -366.5t324 -124.5q129 0 244 39.5t235 116.5l55 -138q-266 -172 -547 -172q-86 0 -167 23t-155.5 74t-130.5 123.5t-89 180t-33 236.5zM467 582q0 -32 14.5 -58t42.5 -26q26 0 51.5 15t53.5 51.5t52 112t38 181.5l8 64 q-114 -3 -187 -105.5t-73 -234.5z" />
<glyph unicode="A" d="M96 0l520 1597l523 -1597h-166l-131 434h-449l-131 -434h-166zM430 563h375l-189 596z" />
<glyph unicode="B" d="M221 0v1475h309q44 0 79.5 -2t86 -10.5t89 -23.5t79.5 -43t67.5 -66t44 -96.5t17.5 -131.5q0 -104 -50.5 -185t-143.5 -133q130 -64 194 -154.5t64 -228.5q0 -168 -113.5 -284.5t-300.5 -116.5h-422zM375 129h258q111 0 190.5 67.5t79.5 196.5q0 133 -85.5 221t-250.5 88 h-192v-573zM375 831h178q52 0 102.5 19t92 53t67 87.5t25.5 117.5q0 49 -12 88t-28.5 63.5t-45 42t-50.5 26t-56.5 13t-52.5 5t-47 0.5h-7h-166v-515z" />
<glyph unicode="C" d="M180 729q0 76 5 145.5t18.5 149.5t35.5 146.5t60 129.5t87 106.5t120.5 70t157.5 26.5q154 0 257.5 -97t112.5 -251h-153q-2 93 -62 156t-153 63q-64 0 -116 -25t-86 -63.5t-59 -96.5t-38.5 -112.5t-21 -124t-9.5 -119t-2 -108.5q0 -625 317 -625q112 0 179 74t69 186 h154q-12 -182 -118.5 -285.5t-289.5 -103.5q-84 0 -153.5 26t-116.5 69t-83 105.5t-57 127.5t-33.5 143.5t-17 145.5t-4.5 141z" />
<glyph unicode="D" d="M229 0v1475h375q89 0 159 -21.5t130.5 -73t100.5 -135t62.5 -211.5t22.5 -297t-21 -294.5t-60.5 -210t-101.5 -136.5t-138 -74t-176 -22h-353zM383 129h188q50 0 87 5t76 20t66.5 41.5t52.5 72t40 109t24 154t9 206.5q0 119 -10 211.5t-26 156.5t-43.5 109t-55 70.5 t-67.5 39.5t-74.5 18t-82.5 4h-184v-1217z" />
<glyph unicode="E" d="M285 0v1475h766v-129h-613v-525h441v-129h-441v-563h627v-129h-780z" />
<glyph unicode="F" d="M311 0v1475h791v-129h-637v-512h477v-129h-477v-705h-154z" />
<glyph unicode="G" d="M182 705q0 215 32 370.5t93.5 248.5t145 136t194.5 43q180 0 274 -112t97 -293h-154q1 16 1 32q0 52 -15 100q-19 61 -70 102.5t-125 41.5q-63 0 -114 -25.5t-83.5 -63.5t-56.5 -97.5t-36 -113t-19 -124.5t-8.5 -117t-1.5 -106q0 -57 1 -100.5t7.5 -112.5t18 -121 t33.5 -110t53 -95.5t78.5 -62.5t107.5 -25q56 0 107.5 23.5t96 70t71 128.5t26.5 188v98h-348v129h502v-766h-154v144q-57 -69 -137.5 -106.5t-171.5 -37.5q-26 0 -47 1.5t-57 9t-65 21t-65.5 40t-64.5 62.5t-56.5 93t-47.5 127t-30.5 167.5t-11.5 212.5z" />
<glyph unicode="H" d="M205 0v1475h153v-646h512v646h154v-1475h-154v700h-512v-700h-153z" />
<glyph unicode="I" d="M338 0v129h199v1217h-199v129h553v-129h-201v-1217h201v-129h-553z" />
<glyph unicode="J" d="M154 426v207h153v-264q0 -128 60.5 -198.5t173.5 -70.5q268 0 268 312v934h-272v129h426v-949v-5q0 -56 -1 -89.5t-9 -98.5t-22.5 -107t-45.5 -95t-74 -84.5t-111.5 -53.5t-154.5 -22q-187 0 -289 111.5t-102 343.5z" />
<glyph unicode="K" d="M264 0v1475h154v-650q32 4 78.5 35.5t103 91t112.5 137t111.5 183.5t96.5 221l151 -80l-121 -203q-92 -154 -168 -253t-120.5 -139t-100.5 -75l637 -743h-205l-563 694h-12v-694h-154z" />
<glyph unicode="L" d="M317 0v1475h154v-1346h639v-129h-793z" />
<glyph unicode="M" d="M156 0v1475h149l309 -736l310 736h151v-1475h-153v1122h-4l-304 -723l-301 723l-4 -4v-1118h-153z" />
<glyph unicode="N" d="M236 0v1475h178l448 -1102h6v1102h154v-1489h-145l-484 1190l-4 -5v-1171h-153z" />
<glyph unicode="O" d="M162 733v2v2q0 180 23.5 316t63.5 220.5t99 137t123 72.5t143 20q70 0 129 -18t102 -47t77.5 -73.5t57.5 -90.5t39.5 -105.5t25.5 -110.5t14 -114.5t6.5 -107.5t1.5 -99q0 -210 -20 -327q-75 -439 -433 -439q-93 0 -167 33t-120.5 79.5t-80 122.5t-49.5 136.5 t-24.5 148.5t-9.5 131t-1 111zM314 820q-1 -18 -1 -32q0 -18 2 -31v-20q0 -221 25 -341q61 -296 274 -296q50 0 90.5 14.5t81 56t67 110.5t43.5 185t17 271q0 177 -11 262q-48 374 -288 375q-56 0 -101.5 -21t-75.5 -57t-53.5 -83t-35.5 -99t-21 -105t-10 -101t-3 -88z" />
<glyph unicode="P" d="M274 0v1475h355q201 0 311.5 -117t110.5 -334q0 -224 -133 -334t-361 -110h-129v-580h-154zM428 709h170q137 0 218 80.5t81 232.5q0 324 -289 324h-180v-637z" />
<glyph unicode="Q" d="M160 722v15q0 180 24 316.5t64 220.5t99.5 136.5t123.5 72.5t143 20q74 0 137 -19.5t106.5 -53.5t79.5 -79.5t57 -98t37.5 -108.5t22.5 -111.5t12 -106.5q4 -37 4 -70q0 -12 -1 -23q-1 -21 -1 -39t1 -34v-23q0 -232 -29.5 -379.5t-117.5 -246.5l180 -234h-189l-102 143 q-88 -49 -197 -49q-94 0 -168.5 32.5t-121 79t-80 122t-49.5 135.5t-24.5 147t-9.5 128.5t-1 106.5zM312 812q-1 -14 -1 -27q0 -18 2 -31v-17q0 -152 17 -267t44.5 -184t67.5 -112t81 -58.5t91 -15.5q70 0 123.5 32.5t94 104.5t62 197.5t21.5 302.5q0 152 -16.5 267t-44 184 t-67.5 112t-81.5 58.5t-91.5 15.5q-57 0 -103.5 -22t-77 -59t-54.5 -85.5t-35 -101.5t-20 -107t-9.5 -101.5t-2.5 -85.5z" />
<glyph unicode="R" d="M268 0v1475h383q76 0 138.5 -19t103 -48.5t71.5 -70.5t47.5 -79.5t26.5 -80.5t12.5 -69.5t2.5 -50.5q0 -124 -58.5 -224.5t-203.5 -183.5l397 -649h-187l-358 614q-37 -1 -110.5 -2t-110.5 -2v-610h-154zM422 741h145q159 0 245.5 82t86.5 242q0 150 -73 215.5t-253 65.5 h-151v-605z" />
<glyph unicode="S" d="M172 211l119 94q58 -92 142 -148.5t185 -56.5q117 0 199 78t82 195q0 35 -1.5 54t-10 45t-25 45t-47 46t-74.5 56t-110 69l-133 80q-49 29 -85 54t-73.5 60.5t-61 71.5t-38.5 84t-15 101q0 168 113 266t285 98q205 0 405 -184l-92 -111q-57 51 -96.5 81t-102 57.5 t-121.5 27.5q-100 0 -168.5 -63t-68.5 -162q0 -35 6 -59t25.5 -57.5t64.5 -70.5t117 -81l117 -72q207 -127 275.5 -208t68.5 -208q0 -196 -119.5 -309t-315.5 -113q-258 0 -446 240z" />
<glyph unicode="T" d="M123 1346v129h985v-129h-420v-1346h-153v1346h-412z" />
<glyph unicode="U" d="M205 469v1006h153v-1088q0 -76 23 -134t61 -90t81.5 -47.5t90.5 -15.5q132 0 193 84.5t61 221.5v1069h154v-1088q0 -101 -35.5 -182t-94 -131t-130.5 -76.5t-148 -26.5q-53 0 -104.5 12t-108 46.5t-99 87.5t-70 144t-27.5 208z" />
<glyph unicode="V" d="M170 1475h168l266 -1252h4l264 1252h170l-333 -1489h-211z" />
<glyph unicode="W" d="M127 1475h166l78 -1151h4l233 739l232 -739h4l74 1151h165l-112 -1489h-176l-187 639l-188 -639h-170z" />
<glyph unicode="X" d="M178 0l361 745l-351 730h177l249 -572l250 572h178l-348 -732l359 -743h-179l-260 590l-260 -590h-176z" />
<glyph unicode="Y" d="M123 1475h170l285 -668l282 668h170l-377 -852v-623h-153v623z" />
<glyph unicode="Z" d="M211 0v111l614 1235h-592v129h768v-109l-606 -1237h656v-129h-840z" />
<glyph unicode="[" d="M344 -229v1749h598v-129h-444v-1491h444v-129h-598z" />
<glyph unicode="\" d="M229 1530h154l616 -1585h-153z" />
<glyph unicode="]" d="M285 -100h444v1491h-444v129h598v-1749h-598v129z" />
<glyph unicode="^" d="M211 731l336 662h135l336 -662h-152l-252 496l-252 -496h-151z" />
<glyph unicode="_" d="M0 -154h1229v-102h-1229v102z" />
<glyph unicode="`" d="M334 1460l110 127l363 -291l-78 -100z" />
<glyph unicode="a" d="M205 336q0 165 95 280t255 115q101 0 229 -53v104q0 92 -51.5 149.5t-136.5 57.5q-23 0 -48.5 -4t-44.5 -8.5t-48.5 -15t-42.5 -16t-47 -20t-43 -18.5l-35 135q96 38 166.5 57t148.5 19q101 0 179 -51t117.5 -131t39.5 -172v-475q0 -163 47 -297l-143 -19l-39 138 q-113 -134 -273 -134q-151 0 -238 103t-87 256zM358 328q0 -86 44.5 -154t127.5 -68q34 0 66.5 12.5t55.5 27.5t50.5 45.5t41.5 49t40 54.5v254q-121 53 -209 53q-109 0 -163 -79t-54 -195z" />
<glyph unicode="b" d="M180 -2q53 152 53 408v1114h154v-463q116 61 234 61q56 0 114 -17.5t118.5 -60t107.5 -104.5t76.5 -160.5t29.5 -218.5q0 -124 -27.5 -225t-71.5 -165.5t-103 -108.5t-118 -62.5t-120 -18.5q-87 0 -138 26.5t-131 98.5l-32 -122zM387 299q42 -89 97 -141t141 -52 q33 0 68.5 11.5t76 42.5t71.5 79t51.5 129t20.5 183q0 110 -26 196t-71 138t-101 78t-119 26q-99 0 -209 -88v-602z" />
<glyph unicode="c" d="M203 537q0 127 28 228.5t73 166t107 107.5t126 61t133 18q241 0 403 -244l-133 -88q-101 203 -270 203q-62 0 -115.5 -23.5t-99.5 -73t-72.5 -137t-26.5 -204.5q0 -99 20 -177.5t51.5 -127.5t74 -81.5t85 -45.5t87.5 -13q82 0 151 49.5t138 131.5l104 -109 q-93 -100 -182.5 -150.5t-208.5 -50.5q-53 0 -105.5 11.5t-107 36.5t-100.5 69.5t-82.5 104t-57 146.5t-20.5 192z" />
<glyph unicode="d" d="M160 555q0 120 29.5 218.5t75.5 161t106 105t118.5 60.5t114.5 18q115 0 232 -63v465h153v-1129q0 -235 55 -395l-145 -19l-33 123q-79 -71 -129.5 -97t-138.5 -26q-61 0 -120 18.5t-117.5 62t-102.5 108t-71 165t-27 224.5zM313 549q0 -102 20.5 -182.5t51.5 -128 t71.5 -78.5t76 -42.5t69.5 -11.5q83 0 141.5 52.5t92.5 136.5v604q-108 90 -207 90q-63 0 -119 -27t-100.5 -79t-70.5 -138t-26 -196z" />
<glyph unicode="e" d="M178 541q0 89 16 170.5t52 156.5t88.5 130t131 87.5t173.5 32.5q75 0 138 -23t105.5 -60t75.5 -87t52 -99t31 -101t16 -89t4 -67v-84h-729q6 -213 90 -307.5t221 -94.5q150 0 342 117l66 -137q-119 -53 -217 -81t-203 -28q-117 0 -206.5 47.5t-142 128.5t-78.5 179 t-26 209zM330 637h577q-5 143 -81 247.5t-199 104.5q-124 0 -194.5 -89t-102.5 -263z" />
<glyph unicode="f" d="M197 897v129h272v104q0 94 29.5 167.5t79 117t108 66t121.5 22.5q122 0 289 -76v-155q-17 7 -82 39.5t-110 47.5t-87 15q-194 0 -194 -225v-123h352v-129h-352v-897h-154v897h-272z" />
<glyph unicode="g" d="M184 586q0 81 14 155.5t46 144t79.5 120.5t119 81.5t159.5 30.5q136 0 268 -96l29 96h145q-47 -169 -47 -409v-603q0 -98 -27.5 -176.5t-70 -126.5t-98.5 -80t-108 -44.5t-103 -12.5q-93 0 -186.5 47t-161.5 121l108 94q47 -61 115 -97t143 -36q77 0 132 44t79.5 111 t24.5 148v86q-73 -47 -130 -69.5t-132 -22.5q-97 0 -175 43.5t-125.5 115t-72.5 157.5t-25 178zM338 604q0 -162 70.5 -272.5t181.5 -110.5q71 0 145 42t109 102v489q-38 57 -104.5 96t-135.5 39q-58 0 -105 -24t-76.5 -62.5t-49 -90.5t-27.5 -103.5t-8 -104.5z" />
<glyph unicode="h" d="M242 0v1520h153v-582q61 82 147 131t183 49q32 0 57 -3.5t56 -15t54 -32t45.5 -57.5t37.5 -87.5t24 -125t9 -168.5v-629h-154v641q0 27 -0.5 44t-2 52t-5 59t-9.5 56t-17 54t-25 42.5t-34.5 30.5t-45.5 10q-81 0 -153 -59t-111 -139q-28 -57 -41 -129.5t-14 -114 t-1 -139.5v-408h-153z" />
<glyph unicode="i" d="M254 967v129h465v-1096h-154v967h-311zM508 1374q0 55 37.5 92t91.5 37t91.5 -37t37.5 -92t-37.5 -92t-91.5 -37t-91.5 37t-37.5 92z" />
<glyph unicode="j" d="M150 106h153q0 -161 42 -236t151 -75q45 0 81.5 20.5t57 48t34.5 58t18.5 48.5t4.5 22v975h-317v129h471v-1073q0 -87 -32.5 -158t-84.5 -113t-111.5 -64t-119.5 -22q-172 0 -260 117t-88 323zM627 1374q0 55 38 92t93 37q54 0 90.5 -37t36.5 -92t-36.5 -92t-90.5 -37 q-56 0 -93.5 37t-37.5 92z" />
<glyph unicode="k" d="M287 0v1520h153v-904q101 104 151.5 158t128.5 147t132 175h195q-59 -69 -134.5 -158t-110.5 -130t-87.5 -98.5t-110.5 -115.5l539 -594h-203l-430 504l-70 -70v-434h-153z" />
<glyph unicode="l" d="M238 1391v129h464v-1520h-153v1391h-311z" />
<glyph unicode="m" d="M94 1118h154l22 -98q58 50 105 74t110 24q72 0 106 -19.5t81 -80.5q57 51 103.5 76.5t107.5 25.5q110 0 175.5 -66.5t65.5 -176.5v-877h-153v877q0 55 -27 84.5t-74 29.5q-49 0 -91 -33t-70 -81v-877h-154v864q0 125 -86 125q-53 0 -103 -39.5t-73 -93.5v-856h-154v756 q0 71 -7 138t-14.5 110t-23.5 114z" />
<glyph unicode="n" d="M178 1096h148l34 -201q60 100 160 161.5t213 61.5q125 0 194.5 -99.5t69.5 -246.5v-772h-153v727q0 31 -0.5 48t-3 48.5t-7 51t-14.5 43.5t-24 38t-36 23.5t-50 9.5q-45 0 -90 -18t-88 -59t-76 -101t-53.5 -151.5t-20.5 -202.5v-457h-154v551q0 337 -49 545z" />
<glyph unicode="o" d="M180 547q0 123 25.5 222t67 163t98.5 107t117.5 61t125.5 18q80 0 146 -22.5t110 -59t78 -87.5t53 -102t31 -109.5t15.5 -102.5t3.5 -88q0 -123 -25.5 -221.5t-67.5 -162.5t-99.5 -107t-118 -61t-126.5 -18q-61 0 -118.5 16.5t-116 57.5t-102 103.5t-70.5 164t-27 228.5z M334 547q0 -63 6 -118.5t24 -117t47.5 -105t81.5 -72t121 -28.5q58 0 104 19t76 54t51 76.5t32 94t15.5 99t4.5 98.5t-4.5 98.5t-15.5 99t-32 94.5t-51 77t-76 54t-104 19q-69 0 -121 -28.5t-81.5 -72t-47.5 -105.5t-24 -117.5t-6 -118.5z" />
<glyph unicode="p" d="M180 1104l146 18l32 -127q79 71 130 97t139 26q61 0 120 -18t118 -61.5t103 -108t71.5 -165t27.5 -224.5q0 -119 -29.5 -217.5t-76.5 -161.5t-107 -106t-118.5 -61t-114.5 -18q-112 0 -234 64v-461h-154v1112q0 255 -53 412zM387 197q113 -91 209 -91q140 0 228.5 116.5 t88.5 324.5q0 102 -20.5 183t-51.5 128t-71.5 78t-76 42t-68.5 11q-86 0 -141.5 -51t-96.5 -139v-602z" />
<glyph unicode="q" d="M158 541q0 124 27.5 224.5t71.5 165t103 108t118 61.5t120 18q88 0 138.5 -26t129.5 -97l33 127l145 -18q-55 -165 -55 -399v-1125h-153v461q-61 -33 -114 -48.5t-118 -15.5q-39 0 -80.5 9t-85.5 30t-84 51.5t-76 76.5t-62.5 102.5t-42 132t-15.5 162.5zM311 547 q0 -208 89 -324.5t229 -116.5q97 0 207 91v612q-47 87 -99 133.5t-135 46.5q-34 0 -69.5 -11t-76.5 -42t-72 -78t-52 -128t-21 -183z" />
<glyph unicode="r" d="M279 1096h149l35 -209q35 54 66.5 91.5t72.5 71.5t91.5 51t109.5 17q73 0 125.5 -33t79 -89t38 -115.5t11.5 -128.5h-154q0 9 -1 38t-2 45.5t-4.5 43.5t-10.5 43.5t-18 33.5t-29.5 25t-42.5 8q-35 0 -76.5 -20t-85 -64t-78.5 -104.5t-57.5 -150.5t-22.5 -193v-457h-153 v629q0 264 -43 467z" />
<glyph unicode="s" d="M190 168l84 123q71 -76 168.5 -130.5t188.5 -54.5q81 0 135.5 44t54.5 124q0 40 -13.5 73t-30.5 53.5t-51.5 40.5t-57.5 30t-66 26q-5 2 -8 3q-42 16 -68.5 26.5t-65.5 29.5t-64 36t-54 43t-45.5 53t-27.5 63.5t-11 77.5q0 120 98 204.5t240 84.5q177 0 354 -127 l-67 -125q-82 58 -150 90.5t-143 32.5q-71 0 -124.5 -47.5t-53.5 -118.5q0 -30 14.5 -57.5t35 -46t52 -36.5t54.5 -28t55 -22q46 -17 74.5 -28.5t70 -31t67 -37.5t55 -45t46.5 -56.5t28 -69t11 -84.5q0 -131 -101 -217.5t-233 -86.5q-119 0 -237 52.5t-214 138.5z" />
<glyph unicode="t" d="M166 967v129h235v336h154v-336h391v-129h-391v-625q0 -35 1 -55.5t4.5 -52t13 -51t24 -39t39.5 -29t59 -9.5q146 0 232 193l147 -37q-60 -129 -156.5 -207t-226.5 -78q-70 0 -121 19t-90.5 64.5t-59.5 128t-20 202.5v576h-235z" />
<glyph unicode="u" d="M233 334v762h154v-717q0 -36 1 -56.5t4 -58.5t12 -61t23 -48t38.5 -37t56.5 -12q47 0 92.5 20t88.5 64t75.5 106t52 153t19.5 198v449h154v-531q0 -362 47 -565h-146l-35 211q-57 -96 -158 -165t-202 -69q-93 0 -157.5 50.5t-92 129t-27.5 177.5z" />
<glyph unicode="v" d="M184 1096h160l266 -850l269 850h159l-340 -1110h-174z" />
<glyph unicode="w" d="M72 1096h172l125 -822h4l157 553h150l158 -553h4l125 822h172l-193 -1110h-164l-178 594l-176 -594h-164z" />
<glyph unicode="x" d="M98 0l430 586l-348 510h178l256 -385l250 385h174l-340 -504l432 -592h-194l-324 473l-319 -473h-195z" />
<glyph unicode="y" d="M31 -96l129 67q11 -28 17.5 -44.5t21.5 -45t29.5 -44.5t36 -29t44.5 -13q30 0 56.5 17.5t49 52.5t33 56t27.5 59l72 165l-352 951h165l267 -746l284 746h164l-405 -1028q-20 -52 -34.5 -86t-40.5 -87t-53.5 -88.5t-62.5 -70.5t-78.5 -52.5t-91.5 -17.5q-101 0 -174 67.5 t-104 170.5z" />
<glyph unicode="z" d="M188 0v113l633 854h-542v129h737v-115l-629 -852h653v-129h-852z" />
<glyph unicode="{" d="M274 662q24 8 59.5 17t58 14.5t49 17.5t41.5 28.5t25.5 45.5t10.5 69v346q0 88 16.5 145.5t58.5 98t113.5 58.5t180.5 18h112v-58h-67q-142 0 -201 -49t-59 -139v-369q0 -52 -1.5 -76.5t-10.5 -60.5t-31.5 -60.5t-59.5 -45.5q37 -20 59.5 -44.5t31.5 -60.5t10.5 -60.5 t1.5 -76.5v-369q0 -90 59 -139t201 -49h67v-58h-112q-109 0 -180.5 18t-113.5 58.5t-58.5 98t-16.5 145.5v346q0 40 -10.5 69t-25.5 45.5t-41.5 29t-48.5 17.5t-58.5 13.5t-59.5 16.5z" />
<glyph unicode="|" d="M547 -590v2212h135v-2212h-135z" />
<glyph unicode="}" d="M233 -137h68q142 0 201 49t59 139v369q0 52 1.5 76.5t10.5 60.5t31.5 60.5t59.5 44.5q-37 21 -59.5 45.5t-31.5 60.5t-10.5 60.5t-1.5 76.5v369q0 90 -59 139t-201 49h-68v58h113q109 0 180.5 -18t113.5 -58.5t58.5 -98t16.5 -145.5v-346q0 -40 10.5 -69t25 -45.5 t41 -28.5t49 -17.5t58 -14.5t59.5 -17q-23 -7 -59 -16t-58.5 -14t-49 -17.5t-41 -29t-25 -45.5t-10.5 -69v-346q0 -88 -16.5 -145.5t-58.5 -98t-113.5 -58.5t-180.5 -18h-113v58z" />
<glyph unicode="~" d="M37 616q29 50 49 80.5t53.5 71.5t65 64t76 40t94.5 17q89 0 260 -76t219 -76q71 0 132 62t97 139l107 -78q-54 -107 -141.5 -182.5t-192.5 -75.5q-23 0 -52 5.5t-67 18.5t-60 21t-66 26t-50 21q-3 1 -27.5 12t-33 14.5t-30 12t-34.5 11.5t-30 6.5t-31 3.5q-29 0 -56 -11 t-45.5 -24.5t-40 -41t-32 -44t-31 -51t-27.5 -45.5z" />
<glyph unicode="&#xa0;" />
<glyph unicode="&#xa1;" d="M449 1346q0 66 49 111.5t116 45.5t115.5 -45t48.5 -112t-48.5 -113.5t-115.5 -46.5q-68 0 -116.5 46.5t-48.5 113.5zM514 0l29 1026h137l35 -1026h-201z" />
<glyph unicode="&#xa2;" d="M203 754q0 490 385 573v193h153v-191q112 -22 185 -77t151 -160l-139 -93q-44 82 -86.5 129t-110.5 68v-864q107 33 222 172l104 -109q-160 -167 -326 -194v-262h-153v260q-196 41 -290.5 191t-94.5 364zM356 768q0 -357 232 -432v858q-232 -68 -232 -426z" />
<glyph unicode="&#xa3;" d="M150 750v129h200q-47 147 -47 243q0 158 116.5 255.5t278.5 97.5q126 0 233 -69t152 -185l-143 -47q-83 172 -246 172q-101 0 -172 -68q-65 -60 -65 -172q0 -17 1 -32.5t4 -33.5t5 -29.5t8 -33.5t8.5 -29.5t10.5 -34.5t10 -34h409v-129h-370q2 -6 9 -33t9 -35.5 t7.5 -32.5t7.5 -35.5t6 -32.5t5.5 -35.5t3 -33t1.5 -35.5q0 -19 -1 -37t-6 -38.5t-7 -32.5t-11.5 -35t-12 -30.5t-15.5 -34t-15 -31t-18.5 -36t-18.5 -34.5q97 18 131 18q66 0 154 -39q64 -28 117 -28q17 0 33.5 5t34.5 16.5t28.5 19.5t31 25.5t25.5 21.5l88 -98 q-111 -119 -229 -119q-58 0 -156 35q-84 32 -147 32q-45 0 -92.5 -14t-76.5 -28t-83 -44l-82 105q25 51 76.5 134t74.5 139t23 118q0 106 -51 283h-237z" />
<glyph unicode="&#xa4;" d="M23 219l223 219q-103 139 -103 299t103 299l-223 219l67 66l221 -219q130 106 303 106q174 0 304 -106l221 219l67 -66l-223 -219q102 -138 102 -299t-102 -299l223 -219l-67 -65l-221 219q-131 -107 -304 -107q-172 0 -303 107l-221 -219zM223 737q0 -166 112.5 -278.5 t278.5 -112.5t279 112.5t113 278.5t-113 279.5t-279 113.5t-278.5 -113.5t-112.5 -279.5z" />
<glyph unicode="&#xa5;" d="M123 1475h176l281 -666l274 666h176l-377 -852v-31h244v-129h-244v-463h-153v463h-238v129h238v31z" />
<glyph unicode="&#xa6;" d="M547 -358v716h135v-716h-135zM547 666v716h135v-716h-135z" />
<glyph unicode="&#xa7;" d="M203 831q0 73 37.5 123.5t109.5 100.5q-24 36 -34 53t-20.5 47.5t-10.5 61.5q0 136 90.5 211t230.5 75q73 0 136 -20.5t113.5 -61.5t75.5 -112t15 -164h-149q14 229 -185 229q-72 0 -123 -35.5t-51 -103.5q0 -21 4 -40t16 -37.5t19 -29.5t29 -29.5t28 -23.5t34 -25 t30 -22l121 -90q15 -11 53.5 -38t60 -43.5t55.5 -44.5t54 -52t41.5 -54t31 -63t9.5 -68q0 -73 -37.5 -123t-109.5 -100q47 -71 57 -101t10 -61q0 -136 -91.5 -211t-231.5 -75q-73 0 -135.5 20.5t-113 62t-75 112.5t-14.5 163h147q-14 -229 186 -229q72 0 123.5 36t51.5 105 q0 25 -8 48t-16.5 37.5t-30 35t-31.5 28.5t-39.5 29.5t-36.5 26.5l-119 90q-17 13 -63 46t-71 52t-63 54t-58 63.5t-36 67.5t-16 79zM356 842q0 -67 74 -127l358 -277q37 17 59.5 51.5t22.5 75.5q0 71 -71 127l-359 279q-39 -19 -61.5 -53.5t-22.5 -75.5z" />
<glyph unicode="&#xa8;" d="M289 1389q0 58 41.5 97.5t99.5 39.5t99.5 -39.5t41.5 -97.5t-41.5 -98t-99.5 -40t-99.5 40t-41.5 98zM655 1389q0 58 42 97.5t100 39.5t99.5 -39.5t41.5 -97.5t-41.5 -98t-99.5 -40t-100 40t-42 98z" />
<glyph unicode="&#xa9;" d="M20 737q0 208 79 384t216 279t299 103q121 0 231 -61t189.5 -163.5t126.5 -244.5t47 -297t-47 -297t-126.5 -244.5t-189.5 -163.5t-231 -61q-162 0 -299 103t-216 279t-79 384zM174 737q0 -166 58 -306.5t159.5 -223t222.5 -82.5q82 0 162 48t141.5 128.5t99.5 195.5 t38 240q0 123 -27 226.5t-71.5 173.5t-102.5 119t-118.5 71.5t-121.5 22.5q-83 0 -162 -45t-141 -124t-99.5 -195t-37.5 -249zM311 743q0 196 88 319.5t238 123.5q108 0 184.5 -77.5t93.5 -209.5h-141q-9 69 -46 107t-93 38q-61 0 -103 -43t-60.5 -108t-18.5 -145 q0 -76 20 -145t64 -117t102 -48q54 0 93 46.5t42 115.5h141q-10 -137 -89 -220t-187 -83q-146 0 -237 128.5t-91 317.5z" />
<glyph unicode="&#xaa;" d="M336 532v121h534v-121h-534zM340 1032q0 113 71 179.5t183 66.5q45 0 106 -14q3 47 -20.5 82.5t-69.5 35.5q-28 0 -60.5 -10t-76 -28t-63.5 -25l-23 145q7 2 31 8t33.5 8t30.5 6.5t33.5 7t30.5 5t34 3.5t32 1q110 0 167 -74t57 -198v-234q0 -103 30 -192l-125 -17l-20 64 q-47 -34 -78 -46.5t-82 -12.5q-104 0 -162.5 67t-58.5 172zM475 1022q0 -42 23.5 -75.5t64.5 -33.5q63 0 137 101v121q-64 22 -108 22q-58 0 -87.5 -38.5t-29.5 -96.5z" />
<glyph unicode="&#xab;" d="M39 729l559 531l96 -99l-458 -432l458 -432l-96 -102zM535 729l559 531l96 -99l-459 -432l459 -432l-94 -102z" />
<glyph unicode="&#xac;" d="M51 791v135h1127v-596h-144v461h-983z" />
<glyph unicode="&#xad;" d="M348 670v129h533v-129h-533z" />
<glyph unicode="&#xae;" d="M20 737q0 209 79 385t216 278.5t299 102.5q161 0 298 -102.5t216.5 -279t79.5 -384.5t-79.5 -384.5t-216.5 -279t-298 -102.5q-162 0 -299 102.5t-216 278.5t-79 385zM174 737q0 -127 38 -242t99 -195t141 -127.5t162 -47.5q49 0 104.5 19t116 66t109 114.5t80 175 t31.5 237.5q0 134 -39 251t-101.5 195t-141.5 122.5t-159 44.5q-64 0 -127.5 -26.5t-119.5 -80t-99.5 -126t-68.5 -171t-25 -209.5zM369 322v825h311q136 0 193 -57.5t57 -194.5q0 -111 -43.5 -162.5t-132.5 -60.5l155 -350h-145l-143 350h-123v-350h-129zM498 793h184 q59 0 89 26.5t30 98.5q0 26 -6 45.5t-20 31t-25.5 18.5t-33 9.5t-32.5 3t-33 0.5h-153v-233z" />
<glyph unicode="&#xaf;" d="M295 1249v129h637v-129h-637z" />
<glyph unicode="&#xb0;" d="M178 1139q0 118 59.5 217t159.5 155t217 56q180 0 308.5 -124t128.5 -304q0 -118 -59.5 -216t-159.5 -154t-218 -56q-179 0 -307.5 124t-128.5 302zM342 1139q0 -112 79.5 -191.5t192.5 -79.5t193 79.5t80 191.5q0 114 -80 193t-193 79t-192.5 -79t-79.5 -193z" />
<glyph unicode="&#xb1;" d="M51 80v135h1127v-135h-1127zM51 774v135h492v486h143v-486h492v-135h-492v-485h-143v485h-492z" />
<glyph unicode="&#xb2;" d="M80 717v45q0 81 26 144t63 104t107 98q30 25 39.5 33t38 35t40.5 44t24 42.5t12 48.5q0 50 -26.5 78t-75.5 28q-64 0 -94.5 -44.5t-32.5 -110.5h-105q5 107 65 174t167 67q93 0 148.5 -51.5t55.5 -142.5q0 -50 -25 -97t-63 -81.5t-82.5 -73.5t-83.5 -74t-66 -82t-30 -98 h353v-86h-455z" />
<glyph unicode="&#xb3;" d="M45 858l92 53q29 -63 64 -93t98 -30t103 38.5t40 101.5q0 85 -47.5 120t-154.5 37v86q66 -3 117 33t51 101q0 49 -36 80.5t-85 31.5q-46 0 -83.5 -33t-58.5 -79l-88 49q35 67 96 108t134 41q95 0 159 -57t64 -150q0 -100 -92 -159q61 -28 94 -79.5t33 -119.5 q0 -104 -70 -170t-176 -66q-89 0 -146 38t-108 118z" />
<glyph unicode="&#xb4;" d="M422 1296l362 291l111 -127l-395 -264z" />
<glyph unicode="&#xb5;" d="M238 -471v1567h153v-637q0 -84 14 -148.5t36 -102t52 -61.5t57.5 -32.5t57.5 -8.5q29 0 57 7.5t61 32t57 63t40.5 107t16.5 157.5v623h153v-1096h-153v92q-38 -54 -97 -84.5t-125 -30.5q-69 0 -128.5 27.5t-98.5 79.5v-555h-153z" />
<glyph unicode="&#xb6;" d="M98 1065q0 60 14 115t50 110t92 95t147 65t207 25h535v-129h-94v-1569h-154v1569h-199v-1569h-153v882q-185 -6 -315 108t-130 298z" />
<glyph unicode="&#xb7;" d="M451 737q0 66 48.5 115t114.5 49t115 -49t49 -115t-49 -115t-115 -49t-114.5 49t-48.5 115z" />
<glyph unicode="&#xb8;" d="M418 -328l45 113q95 -43 162 -43q71 0 71 45q0 29 -30.5 38.5t-118.5 18.5q-27 2 -41 4l82 230h131l-47 -141q76 -3 127 -43.5t51 -114.5q0 -75 -64 -120.5t-143 -45.5q-96 0 -225 59z" />
<glyph unicode="&#xb9;" d="M109 1350v92l251 78v-725h140v-86h-385v86h143v600z" />
<glyph unicode="&#xba;" d="M322 1147q0 74 17.5 137.5t52 113t91.5 77.5t131 28q138 0 215.5 -98t77.5 -256q0 -100 -30 -178.5t-97.5 -128t-165.5 -49.5q-135 0 -213.5 96.5t-78.5 257.5zM348 532v121h535v-121h-535zM457 1147q0 -43 7 -80.5t23 -74t48.5 -58t78.5 -21.5t78.5 21.5t49 58t23.5 74 t7 80.5t-7 81t-23.5 74.5t-49 58t-78.5 21.5t-78.5 -21.5t-48.5 -58t-23 -74t-7 -81.5z" />
<glyph unicode="&#xbb;" d="M39 297l459 432l-459 432l96 99l559 -531l-559 -534zM535 297l458 432l-458 432l96 99l561 -531l-561 -534z" />
<glyph unicode="&#xbc;" d="M109 1350v92l251 78v-725h140v-86h-385v86h143v600zM276 0l672 1475h119l-676 -1475h-115zM655 195v63l287 528h121v-505h111v-86h-111v-195h-102v195h-306zM776 281h185v344h-5z" />
<glyph unicode="&#xbd;" d="M109 1350v92l251 78v-725h140v-86h-385v86h143v600zM242 0l671 1475h119l-676 -1475h-114zM698 0v45q0 116 46 188t151 158q30 25 39.5 33t38 35t40.5 44t24 42.5t12 48.5q0 50 -27 78t-76 28q-64 0 -94.5 -44.5t-32.5 -110.5h-104q5 107 65 174t166 67q94 0 149.5 -51.5 t55.5 -142.5q0 -50 -25 -97t-63 -81.5t-82.5 -73.5t-83.5 -74t-66 -82t-30 -98h352v-86h-455z" />
<glyph unicode="&#xbe;" d="M45 858l92 53q29 -63 64 -93t98 -30t103 38.5t40 101.5q0 85 -47.5 120t-154.5 37v86q66 -3 117 33t51 101q0 49 -36 80.5t-85 31.5q-46 0 -83.5 -33t-58.5 -79l-88 49q35 67 96 108t134 41q95 0 159 -57t64 -150q0 -100 -92 -159q61 -28 94 -79.5t33 -119.5 q0 -104 -70 -170t-176 -66q-89 0 -146 38t-108 118zM270 0l672 1475h119l-676 -1475h-115zM655 195v63l287 528h121v-505h111v-86h-111v-195h-102v195h-306zM776 281h185v344h-5z" />
<glyph unicode="&#xbf;" d="M258 338q0 94 31.5 155t99.5 121q29 26 62.5 52.5t48 38t28.5 28t18.5 35t4.5 47.5v217h154v-217q0 -90 -35.5 -142t-147.5 -136q-59 -45 -84.5 -90t-25.5 -115q0 -103 58.5 -167.5t160.5 -64.5q101 0 157 63t56 163h153q-8 -163 -106 -259t-262 -96q-170 0 -270.5 99 t-100.5 268zM446 1346q0 66 49.5 111.5t116.5 45.5t115.5 -45t48.5 -112t-48.5 -113.5t-115.5 -46.5q-68 0 -117 46.5t-49 113.5z" />
<glyph unicode="&#xc0;" d="M96 0l520 1597l523 -1597h-166l-131 434h-449l-131 -434h-166zM334 1839l110 127l363 -291l-78 -100zM430 563h375l-189 596z" />
<glyph unicode="&#xc1;" d="M96 0l520 1597l523 -1597h-166l-131 434h-449l-131 -434h-166zM422 1675l362 291l111 -127l-395 -264zM430 563h375l-189 596z" />
<glyph unicode="&#xc2;" d="M96 0l520 1597l523 -1597h-166l-131 434h-449l-131 -434h-166zM248 1657l366 313l367 -313l-80 -88l-287 211l-284 -211zM430 563h375l-189 596z" />
<glyph unicode="&#xc3;" d="M96 0l520 1597l523 -1597h-166l-131 434h-449l-131 -434h-166zM207 1669q22 48 43.5 83.5t52.5 69.5t72.5 52t91.5 18q34 0 68 -10.5t51.5 -20t58.5 -34.5q2 -1 36 -21.5t56.5 -30.5t40.5 -10q20 0 37 8.5t26.5 16.5t22.5 30t16 29t15 33l125 -51q-30 -84 -92.5 -139.5 t-145.5 -55.5q-47 0 -86 16t-92 48q-2 1 -15.5 10t-17 11.5t-16 10t-18.5 10.5t-17.5 8t-19 7t-18 4t-19.5 2q-24 0 -45 -13t-37.5 -38t-25.5 -42.5t-21 -45.5zM430 563h375l-189 596z" />
<glyph unicode="&#xc4;" d="M96 0l520 1597l523 -1597h-166l-131 434h-449l-131 -434h-166zM289 1767q0 58 41.5 98t99.5 40t99.5 -40t41.5 -98t-41.5 -97.5t-99.5 -39.5t-99.5 39.5t-41.5 97.5zM430 563h375l-189 596zM655 1767q0 58 42 98t100 40t99.5 -40t41.5 -98t-41.5 -97.5t-99.5 -39.5 t-100 39.5t-42 97.5z" />
<glyph unicode="&#xc5;" d="M96 0l520 1597l523 -1597h-166l-131 434h-449l-131 -434h-166zM428 1798q0 79 57.5 137t135.5 58t135 -58t57 -137t-57 -136.5t-135 -57.5t-135.5 57.5t-57.5 136.5zM430 563h375l-189 596zM557 1798q0 -26 19 -45.5t45 -19.5t44.5 19.5t18.5 45.5q0 27 -18.5 46.5 t-44.5 19.5t-45 -20t-19 -46z" />
<glyph unicode="&#xc6;" d="M41 0l408 1475h675v-129h-415v-519h282v-129h-282v-569h432v-129h-586v440h-238l-116 -440h-160zM352 569h203v777h-4z" />
<glyph unicode="&#xc7;" d="M180 729q0 76 5 145.5t18.5 149.5t35.5 146.5t60 129.5t87 106.5t120.5 70t157.5 26.5q154 0 257.5 -97t112.5 -251h-153q-2 93 -62 156t-153 63q-64 0 -116 -25t-86 -63.5t-59 -96.5t-38.5 -112.5t-21 -124t-9.5 -119t-2 -108.5q0 -625 317 -625q112 0 179 74t69 186 h154q-12 -171 -108 -273t-261 -112l-12 -38q76 -3 127 -43.5t51 -114.5q0 -75 -64 -120.5t-143 -45.5q-96 0 -225 59l45 113q95 -43 162 -43q71 0 71 45q0 29 -30.5 38.5t-118.5 18.5q-27 2 -41 4l47 134q-373 68 -373 747z" />
<glyph unicode="&#xc8;" d="M285 0v1475h766v-129h-613v-525h441v-129h-441v-563h627v-129h-780zM375 1839l110 127l363 -291l-78 -100z" />
<glyph unicode="&#xc9;" d="M285 0v1475h766v-129h-613v-525h441v-129h-441v-563h627v-129h-780zM422 1675l362 291l111 -127l-395 -264z" />
<glyph unicode="&#xca;" d="M279 1657l366 313l367 -313l-80 -88l-287 211l-285 -211zM285 0v1475h766v-129h-613v-525h441v-129h-441v-563h627v-129h-780z" />
<glyph unicode="&#xcb;" d="M285 0v1475h766v-129h-613v-525h441v-129h-441v-563h627v-129h-780zM319 1767q0 58 42 98t100 40t99.5 -40t41.5 -98t-41.5 -97.5t-99.5 -39.5t-100 39.5t-42 97.5zM686 1767q0 58 41.5 98t99.5 40t100 -40t42 -98t-42 -97.5t-100 -39.5t-99.5 39.5t-41.5 97.5z" />
<glyph unicode="&#xcc;" d="M334 1839l110 127l363 -291l-78 -100zM338 0v129h199v1217h-199v129h553v-129h-201v-1217h201v-129h-553z" />
<glyph unicode="&#xcd;" d="M338 0v129h199v1217h-199v129h553v-129h-201v-1217h201v-129h-553zM422 1675l362 291l111 -127l-395 -264z" />
<glyph unicode="&#xce;" d="M248 1657l366 313l367 -313l-80 -88l-287 211l-284 -211zM338 0v129h199v1217h-199v129h553v-129h-201v-1217h201v-129h-553z" />
<glyph unicode="&#xcf;" d="M289 1767q0 58 41.5 98t99.5 40t99.5 -40t41.5 -98t-41.5 -97.5t-99.5 -39.5t-99.5 39.5t-41.5 97.5zM338 0v129h199v1217h-199v129h553v-129h-201v-1217h201v-129h-553zM655 1767q0 58 42 98t100 40t99.5 -40t41.5 -98t-41.5 -97.5t-99.5 -39.5t-100 39.5t-42 97.5z" />
<glyph unicode="&#xd0;" d="M33 700v129h196v646h375q89 0 159 -21.5t130.5 -73t100.5 -135t62.5 -211.5t22.5 -297t-21 -294.5t-60.5 -210t-101.5 -136.5t-138 -74t-176 -22h-353v700h-196zM383 129h188q50 0 87 5t76 20t66.5 41.5t52.5 72t40 109t24 154t9 206.5q0 119 -10 211.5t-26 156.5 t-43.5 109t-55 70.5t-67.5 39.5t-74.5 18t-82.5 4h-184v-517h248v-129h-248v-571z" />
<glyph unicode="&#xd1;" d="M207 1669q22 48 43.5 83.5t52.5 69.5t72.5 52t91.5 18q34 0 68 -10.5t51.5 -20t58.5 -34.5q2 -1 36 -21.5t56.5 -30.5t40.5 -10q20 0 37 8.5t26.5 16.5t22.5 30t16 29t15 33l125 -51q-30 -84 -92.5 -139.5t-145.5 -55.5q-47 0 -86 16t-92 48q-2 1 -15.5 10t-17 11.5 t-16 10t-18.5 10.5t-17.5 8t-19 7t-18 4t-19.5 2q-24 0 -45 -13t-37.5 -38t-25.5 -42.5t-21 -45.5zM236 0v1475h178l448 -1102h6v1102h154v-1489h-145l-484 1190l-4 -5v-1171h-153z" />
<glyph unicode="&#xd2;" d="M162 733v2v2q0 180 23.5 316t63.5 220.5t99 137t123 72.5t143 20q70 0 129 -18t102 -47t77.5 -73.5t57.5 -90.5t39.5 -105.5t25.5 -110.5t14 -114.5t6.5 -107.5t1.5 -99q0 -210 -20 -327q-75 -439 -433 -439q-93 0 -167 33t-120.5 79.5t-80 122.5t-49.5 136.5 t-24.5 148.5t-9.5 131t-1 111zM314.5 820.5q-2.5 -39.5 0.5 -63.5v-20q0 -221 25 -341q61 -296 274 -296q50 0 90.5 14.5t81 56t67 110.5t43.5 185t17 271q0 177 -11 262q-48 374 -288 375q-56 0 -101.5 -21t-75.5 -57t-53.5 -83t-35.5 -99t-21 -105t-9.5 -101t-3 -87.5z M375 1839l110 127l363 -291l-78 -100z" />
<glyph unicode="&#xd3;" d="M162 733v2v2q0 180 23.5 316t63.5 220.5t99 137t123 72.5t143 20q70 0 129 -18t102 -47t77.5 -73.5t57.5 -90.5t39.5 -105.5t25.5 -110.5t14 -114.5t6.5 -107.5t1.5 -99q0 -210 -20 -327q-75 -439 -433 -439q-93 0 -167 33t-120.5 79.5t-80 122.5t-49.5 136.5 t-24.5 148.5t-9.5 131t-1 111zM314.5 820.5q-2.5 -39.5 0.5 -63.5v-20q0 -221 25 -341q61 -296 274 -296q50 0 90.5 14.5t81 56t67 110.5t43.5 185t17 271q0 177 -11 262q-48 374 -288 375q-56 0 -101.5 -21t-75.5 -57t-53.5 -83t-35.5 -99t-21 -105t-9.5 -101t-3 -87.5z M422 1675l362 291l111 -127l-395 -264z" />
<glyph unicode="&#xd4;" d="M162 733v2v2q0 180 23.5 316t63.5 220.5t99 137t123 72.5t143 20q70 0 129 -18t102 -47t77.5 -73.5t57.5 -90.5t39.5 -105.5t25.5 -110.5t14 -114.5t6.5 -107.5t1.5 -99q0 -210 -20 -327q-75 -439 -433 -439q-93 0 -167 33t-120.5 79.5t-80 122.5t-49.5 136.5 t-24.5 148.5t-9.5 131t-1 111zM248 1657l366 313l367 -313l-80 -88l-287 211l-284 -211zM314.5 820.5q-2.5 -39.5 0.5 -63.5v-20q0 -221 25 -341q61 -296 274 -296q50 0 90.5 14.5t81 56t67 110.5t43.5 185t17 271q0 177 -11 262q-48 374 -288 375q-56 0 -101.5 -21 t-75.5 -57t-53.5 -83t-35.5 -99t-21 -105t-9.5 -101t-3 -87.5z" />
<glyph unicode="&#xd5;" d="M162 733v2v2q0 180 23.5 316t63.5 220.5t99 137t123 72.5t143 20q70 0 129 -18t102 -47t77.5 -73.5t57.5 -90.5t39.5 -105.5t25.5 -110.5t14 -114.5t6.5 -107.5t1.5 -99q0 -210 -20 -327q-75 -439 -433 -439q-93 0 -167 33t-120.5 79.5t-80 122.5t-49.5 136.5 t-24.5 148.5t-9.5 131t-1 111zM207 1669q22 48 43.5 83.5t52.5 69.5t72.5 52t91.5 18q34 0 68 -10.5t51.5 -20t58.5 -34.5q2 -1 36 -21.5t56.5 -30.5t40.5 -10q20 0 37 8.5t26.5 16.5t22.5 30t16 29t15 33l125 -51q-30 -84 -92.5 -139.5t-145.5 -55.5q-47 0 -86 16t-92 48 q-2 1 -15.5 10t-17 11.5t-16 10t-18.5 10.5t-17.5 8t-19 7t-18 4t-19.5 2q-24 0 -45 -13t-37.5 -38t-25.5 -42.5t-21 -45.5zM314.5 820.5q-2.5 -39.5 0.5 -63.5v-20q0 -221 25 -341q61 -296 274 -296q50 0 90.5 14.5t81 56t67 110.5t43.5 185t17 271q0 177 -11 262 q-48 374 -288 375q-56 0 -101.5 -21t-75.5 -57t-53.5 -83t-35.5 -99t-21 -105t-9.5 -101t-3 -87.5z" />
<glyph unicode="&#xd6;" d="M162 733v2v2q0 180 23.5 316t63.5 220.5t99 137t123 72.5t143 20q70 0 129 -18t102 -47t77.5 -73.5t57.5 -90.5t39.5 -105.5t25.5 -110.5t14 -114.5t6.5 -107.5t1.5 -99q0 -210 -20 -327q-75 -439 -433 -439q-93 0 -167 33t-120.5 79.5t-80 122.5t-49.5 136.5 t-24.5 148.5t-9.5 131t-1 111zM289 1767q0 58 41.5 98t99.5 40t99.5 -40t41.5 -98t-41.5 -97.5t-99.5 -39.5t-99.5 39.5t-41.5 97.5zM314.5 820.5q-2.5 -39.5 0.5 -63.5v-20q0 -221 25 -341q61 -296 274 -296q50 0 90.5 14.5t81 56t67 110.5t43.5 185t17 271q0 177 -11 262 q-48 374 -288 375q-56 0 -101.5 -21t-75.5 -57t-53.5 -83t-35.5 -99t-21 -105t-9.5 -101t-3 -87.5zM655 1767q0 58 42 98t100 40t99.5 -40t41.5 -98t-41.5 -97.5t-99.5 -39.5t-100 39.5t-42 97.5z" />
<glyph unicode="&#xd7;" d="M51 270l467 467l-467 467l99 99l464 -467l465 467l99 -99l-467 -467l467 -467l-99 -98l-465 467l-464 -467z" />
<glyph unicode="&#xd8;" d="M123 10l117 205q-49 109 -63.5 233t-14.5 289q0 170 11 259q49 405 305 487q62 20 136 20q172 0 289 -117l58 101l114 -68l-88 -153q51 -110 66.5 -236t15.5 -293q0 -54 -1 -98t-6.5 -107t-14 -114t-25.5 -111t-39.5 -106t-57.5 -91t-78.5 -74t-103 -47t-129.5 -18 q-169 0 -290 121l-86 -149zM315 737q0 -223 25 -346l487 858q-81 125 -213 125q-50 0 -90.5 -14.5t-81 -56t-67 -110.5t-43.5 -185t-17 -271zM401 229q35 -59 91 -94t122 -35q49 0 88.5 13.5t80.5 55t69 109.5t45.5 185t17.5 274q0 223 -26 353z" />
<glyph unicode="&#xd9;" d="M205 469v1006h153v-1088q0 -76 23 -134t61 -90t81.5 -47.5t90.5 -15.5q132 0 193 84.5t61 221.5v1069h154v-1088q0 -101 -35.5 -182t-94 -131t-130.5 -76.5t-148 -26.5q-53 0 -104.5 12t-108 46.5t-99 87.5t-70 144t-27.5 208zM334 1839l110 127l363 -291l-78 -100z" />
<glyph unicode="&#xda;" d="M205 469v1006h153v-1088q0 -76 23 -134t61 -90t81.5 -47.5t90.5 -15.5q132 0 193 84.5t61 221.5v1069h154v-1088q0 -101 -35.5 -182t-94 -131t-130.5 -76.5t-148 -26.5q-53 0 -104.5 12t-108 46.5t-99 87.5t-70 144t-27.5 208zM422 1675l362 291l111 -127l-395 -264z" />
<glyph unicode="&#xdb;" d="M205 469v1006h153v-1088q0 -76 23 -134t61 -90t81.5 -47.5t90.5 -15.5q132 0 193 84.5t61 221.5v1069h154v-1088q0 -101 -35.5 -182t-94 -131t-130.5 -76.5t-148 -26.5q-53 0 -104.5 12t-108 46.5t-99 87.5t-70 144t-27.5 208zM248 1657l366 313l367 -313l-80 -88 l-287 211l-284 -211z" />
<glyph unicode="&#xdc;" d="M205 469v1006h153v-1088q0 -76 23 -134t61 -90t81.5 -47.5t90.5 -15.5q132 0 193 84.5t61 221.5v1069h154v-1088q0 -101 -35.5 -182t-94 -131t-130.5 -76.5t-148 -26.5q-53 0 -104.5 12t-108 46.5t-99 87.5t-70 144t-27.5 208zM289 1767q0 58 41.5 98t99.5 40t99.5 -40 t41.5 -98t-41.5 -97.5t-99.5 -39.5t-99.5 39.5t-41.5 97.5zM655 1767q0 58 42 98t100 40t99.5 -40t41.5 -98t-41.5 -97.5t-99.5 -39.5t-100 39.5t-42 97.5z" />
<glyph unicode="&#xdd;" d="M123 1475h170l285 -668l282 668h170l-377 -852v-623h-153v623zM422 1675l362 291l111 -127l-395 -264z" />
<glyph unicode="&#xde;" d="M274 0v1475h154v-289h201q201 0 311.5 -117t110.5 -334q0 -224 -133 -334t-361 -110h-129v-291h-154zM428 420h170q137 0 218 80.5t81 232.5q0 324 -289 324h-180v-637z" />
<glyph unicode="&#xdf;" d="M279 0v1176q0 54 23 110t64.5 105t109 80.5t147.5 31.5q145 0 244.5 -113t99.5 -260q0 -106 -44.5 -186t-134.5 -145q236 -102 236 -387q0 -100 -22.5 -178.5t-57.5 -125.5t-81 -77.5t-89.5 -42t-87.5 -11.5q-102 0 -197 72l70 113q79 -56 133 -56q49 0 86 28t56 72.5 t27.5 90t8.5 90.5q0 340 -358 334v129q128 -2 214.5 73.5t86.5 202.5q0 99 -58 173.5t-153 74.5q-86 0 -128 -60t-42 -202v-1112h-153z" />
<glyph unicode="&#xe0;" d="M205 336q0 165 95 280t255 115q101 0 229 -53v104q0 92 -51.5 149.5t-136.5 57.5q-23 0 -48.5 -4t-44.5 -8.5t-48.5 -15t-42.5 -16t-47 -20t-43 -18.5l-35 135q96 38 166.5 57t148.5 19q101 0 179 -51t117.5 -131t39.5 -172v-475q0 -163 47 -297l-143 -19l-39 138 q-113 -134 -273 -134q-151 0 -238 103t-87 256zM334 1460l110 127l363 -291l-78 -100zM358 328q0 -86 44.5 -154t127.5 -68q34 0 66.5 12.5t55.5 27.5t50.5 45.5t41.5 49t40 54.5v254q-121 53 -209 53q-109 0 -163 -79t-54 -195z" />
<glyph unicode="&#xe1;" d="M205 336q0 165 95 280t255 115q101 0 229 -53v104q0 92 -51.5 149.5t-136.5 57.5q-23 0 -48.5 -4t-44.5 -8.5t-48.5 -15t-42.5 -16t-47 -20t-43 -18.5l-35 135q96 38 166.5 57t148.5 19q101 0 179 -51t117.5 -131t39.5 -172v-475q0 -163 47 -297l-143 -19l-39 138 q-113 -134 -273 -134q-151 0 -238 103t-87 256zM358 328q0 -86 44.5 -154t127.5 -68q34 0 66.5 12.5t55.5 27.5t50.5 45.5t41.5 49t40 54.5v254q-121 53 -209 53q-109 0 -163 -79t-54 -195zM422 1296l362 291l111 -127l-395 -264z" />
<glyph unicode="&#xe2;" d="M205 336q0 165 95 280t255 115q101 0 229 -53v104q0 92 -51.5 149.5t-136.5 57.5q-23 0 -48.5 -4t-44.5 -8.5t-48.5 -15t-42.5 -16t-47 -20t-43 -18.5l-35 135q96 38 166.5 57t148.5 19q101 0 179 -51t117.5 -131t39.5 -172v-475q0 -163 47 -297l-143 -19l-39 138 q-113 -134 -273 -134q-151 0 -238 103t-87 256zM248 1278l366 313l367 -313l-80 -88l-287 211l-284 -211zM358 328q0 -86 44.5 -154t127.5 -68q34 0 66.5 12.5t55.5 27.5t50.5 45.5t41.5 49t40 54.5v254q-121 53 -209 53q-109 0 -163 -79t-54 -195z" />
<glyph unicode="&#xe3;" d="M205 336q0 165 95 280t255 115q101 0 229 -53v104q0 92 -51.5 149.5t-136.5 57.5q-23 0 -48.5 -4t-44.5 -8.5t-48.5 -15t-42.5 -16t-47 -20t-43 -18.5l-35 135q96 38 166.5 57t148.5 19q101 0 179 -51t117.5 -131t39.5 -172v-475q0 -163 47 -297l-143 -19l-39 138 q-113 -134 -273 -134q-151 0 -238 103t-87 256zM207 1290q22 48 43.5 83.5t52.5 69.5t72.5 52t91.5 18q34 0 68 -10.5t51.5 -20t58.5 -34.5q2 -1 36 -21.5t56.5 -30.5t40.5 -10q20 0 37 8.5t26.5 16.5t22.5 30t16 29t15 33l125 -51q-30 -84 -92.5 -139.5t-145.5 -55.5 q-47 0 -86 16t-92 48q-2 1 -15.5 10t-17 11.5t-16 10t-18.5 10.5t-17.5 8t-19 7t-18 4t-19.5 2q-24 0 -45 -13t-37.5 -38t-25.5 -42.5t-21 -45.5zM358 328q0 -86 44.5 -154t127.5 -68q34 0 66.5 12.5t55.5 27.5t50.5 45.5t41.5 49t40 54.5v254q-121 53 -209 53 q-109 0 -163 -79t-54 -195z" />
<glyph unicode="&#xe4;" d="M205 336q0 165 95 280t255 115q101 0 229 -53v104q0 92 -51.5 149.5t-136.5 57.5q-23 0 -48.5 -4t-44.5 -8.5t-48.5 -15t-42.5 -16t-47 -20t-43 -18.5l-35 135q96 38 166.5 57t148.5 19q101 0 179 -51t117.5 -131t39.5 -172v-475q0 -163 47 -297l-143 -19l-39 138 q-113 -134 -273 -134q-151 0 -238 103t-87 256zM289 1389q0 58 41.5 97.5t99.5 39.5t99.5 -39.5t41.5 -97.5t-41.5 -98t-99.5 -40t-99.5 40t-41.5 98zM358 328q0 -86 44.5 -154t127.5 -68q34 0 66.5 12.5t55.5 27.5t50.5 45.5t41.5 49t40 54.5v254q-121 53 -209 53 q-109 0 -163 -79t-54 -195zM655 1389q0 58 42 97.5t100 39.5t99.5 -39.5t41.5 -97.5t-41.5 -98t-99.5 -40t-100 40t-42 98z" />
<glyph unicode="&#xe5;" d="M205 336q0 165 95 280t255 115q101 0 229 -53v104q0 92 -51.5 149.5t-136.5 57.5q-23 0 -48.5 -4t-44.5 -8.5t-48.5 -15t-42.5 -16t-47 -20t-43 -18.5l-35 135q96 38 166.5 57t148.5 19q101 0 179 -51t117.5 -131t39.5 -172v-475q0 -163 47 -297l-143 -19l-39 138 q-113 -134 -273 -134q-151 0 -238 103t-87 256zM358 328q0 -86 44.5 -154t127.5 -68q34 0 66.5 12.5t55.5 27.5t50.5 45.5t41.5 49t40 54.5v254q-121 53 -209 53q-109 0 -163 -79t-54 -195zM414 1411q0 79 57 137t135 58t135.5 -58t57.5 -137t-57.5 -136.5t-135.5 -57.5 t-135 57.5t-57 136.5zM543 1411q0 -26 18.5 -45.5t44.5 -19.5t45 19.5t19 45.5t-19 46t-45 20t-44.5 -19.5t-18.5 -46.5z" />
<glyph unicode="&#xe6;" d="M78 332q0 82 21 150.5t53.5 112.5t74.5 74t83 43t79 13q59 0 141 -20v67q0 32 -0.5 52t-5.5 55t-14 56t-28 37.5t-46 16.5q-32 0 -70 -14t-62 -28.5t-66.5 -43t-57.5 -37.5l-35 140q184 112 295 112q54 0 87 -14.5t83 -52.5q76 67 191 67q29 0 56.5 -5t61.5 -20.5 t63.5 -39.5t58.5 -67t49 -98.5t32.5 -137.5t12.5 -181v-59h-451v-227q0 -37 3.5 -63t14 -55t34.5 -44t61 -15q48 0 111 24t93.5 41.5t100.5 59.5l55 -127q-102 -60 -190.5 -93.5t-180.5 -33.5q-60 0 -99 17t-85 59q-87 -76 -217 -76q-145 0 -226 102.5t-81 252.5zM231 326 q0 -56 18 -104.5t59 -82t98 -33.5q30 0 52.5 8t35.5 26.5t21 34.5t11 47t3.5 48.5t0.5 53.5v237q-50 35 -116 35q-50 0 -87.5 -25.5t-57.5 -67.5t-29 -86.5t-9 -90.5zM684 639h297q-1 42 -5.5 84t-17.5 92t-33.5 87t-56.5 62t-82 25q-55 0 -78.5 -38.5t-23.5 -131.5v-180z " />
<glyph unicode="&#xe7;" d="M203 537q0 127 28 228.5t73 166t107 107.5t126 61t133 18q241 0 403 -244l-133 -88q-101 203 -270 203q-62 0 -115.5 -23.5t-99.5 -73t-72.5 -137t-26.5 -204.5q0 -99 20 -177.5t51.5 -127.5t74 -81.5t85 -45.5t87.5 -13q82 0 151 49.5t138 131.5l104 -109 q-92 -98 -179.5 -149t-201.5 -52l-14 -40q76 -3 127 -43.5t51 -114.5q0 -75 -64 -120.5t-143 -45.5q-96 0 -225 59l45 113q95 -43 162 -43q71 0 71 45q0 29 -30.5 38.5t-118.5 18.5q-27 2 -41 4l51 146q-55 13 -104.5 38t-96 69.5t-80 103.5t-53.5 144.5t-20 187.5z" />
<glyph unicode="&#xe8;" d="M178 541q0 89 16 170.5t52 156.5t88.5 130t131 87.5t173.5 32.5q75 0 138 -23t105.5 -60t75.5 -87t52 -99t31 -101t16 -89t4 -67v-84h-729q6 -213 90 -307.5t221 -94.5q150 0 342 117l66 -137q-119 -53 -217 -81t-203 -28q-117 0 -206.5 47.5t-142 128.5t-78.5 179 t-26 209zM330 637h577q-5 143 -81 247.5t-199 104.5q-124 0 -194.5 -89t-102.5 -263zM375 1460l110 127l363 -291l-78 -100z" />
<glyph unicode="&#xe9;" d="M178 541q0 89 16 170.5t52 156.5t88.5 130t131 87.5t173.5 32.5q75 0 138 -23t105.5 -60t75.5 -87t52 -99t31 -101t16 -89t4 -67v-84h-729q6 -213 90 -307.5t221 -94.5q150 0 342 117l66 -137q-119 -53 -217 -81t-203 -28q-117 0 -206.5 47.5t-142 128.5t-78.5 179 t-26 209zM330 637h577q-5 143 -81 247.5t-199 104.5q-124 0 -194.5 -89t-102.5 -263zM422 1296l362 291l111 -127l-395 -264z" />
<glyph unicode="&#xea;" d="M178 541q0 89 16 170.5t52 156.5t88.5 130t131 87.5t173.5 32.5q75 0 138 -23t105.5 -60t75.5 -87t52 -99t31 -101t16 -89t4 -67v-84h-729q6 -213 90 -307.5t221 -94.5q150 0 342 117l66 -137q-119 -53 -217 -81t-203 -28q-117 0 -206.5 47.5t-142 128.5t-78.5 179 t-26 209zM248 1278l366 313l367 -313l-80 -88l-287 211l-284 -211zM330 637h577q-5 143 -81 247.5t-199 104.5q-124 0 -194.5 -89t-102.5 -263z" />
<glyph unicode="&#xeb;" d="M178 541q0 89 16 170.5t52 156.5t88.5 130t131 87.5t173.5 32.5q75 0 138 -23t105.5 -60t75.5 -87t52 -99t31 -101t16 -89t4 -67v-84h-729q6 -213 90 -307.5t221 -94.5q150 0 342 117l66 -137q-119 -53 -217 -81t-203 -28q-117 0 -206.5 47.5t-142 128.5t-78.5 179 t-26 209zM289 1389q0 58 41.5 97.5t99.5 39.5t99.5 -39.5t41.5 -97.5t-41.5 -98t-99.5 -40t-99.5 40t-41.5 98zM330 637h577q-5 143 -81 247.5t-199 104.5q-124 0 -194.5 -89t-102.5 -263zM655 1389q0 58 42 97.5t100 39.5t99.5 -39.5t41.5 -97.5t-41.5 -98t-99.5 -40 t-100 40t-42 98z" />
<glyph unicode="&#xec;" d="M254 967v129h465v-1096h-154v967h-311zM334 1460l110 127l363 -291l-78 -100z" />
<glyph unicode="&#xed;" d="M254 967v129h465v-1096h-154v967h-311zM422 1296l362 291l111 -127l-395 -264z" />
<glyph unicode="&#xee;" d="M166 1278l366 313l367 -313l-80 -88l-287 211l-284 -211zM254 967v129h465v-1096h-154v967h-311z" />
<glyph unicode="&#xef;" d="M254 967v129h465v-1096h-154v967h-311zM289 1389q0 58 41.5 97.5t99.5 39.5t99.5 -39.5t41.5 -97.5t-41.5 -98t-99.5 -40t-99.5 40t-41.5 98zM655 1389q0 58 42 97.5t100 39.5t99.5 -39.5t41.5 -97.5t-41.5 -98t-99.5 -40t-100 40t-42 98z" />
<glyph unicode="&#xf0;" d="M180 547q0 123 26 222t68.5 163t99.5 107t115.5 61t120.5 18q112 0 226 -102l4 4q-69 158 -222 274l-278 -127l-90 70l270 129q-107 69 -266 109l102 45q146 -19 285 -99l219 99l94 -72l-211 -96q140 -116 224 -296t84 -425q0 -654 -437 -654q-61 0 -118.5 16.5 t-116 57.5t-102 103.5t-70.5 164t-27 228.5zM334 547q0 -63 6 -118.5t24 -117t47.5 -105t81.5 -72t121 -28.5q58 0 104 19t76 54t51 76.5t32 94t15.5 99t4.5 98.5t-4.5 98.5t-15.5 99t-32 94.5t-51 77t-76 54t-104 19q-69 0 -121 -28.5t-81.5 -72t-47.5 -105.5t-24 -117.5 t-6 -118.5z" />
<glyph unicode="&#xf1;" d="M178 1096h148l34 -201q60 100 160 161.5t213 61.5q125 0 194.5 -99.5t69.5 -246.5v-772h-153v727q0 31 -0.5 48t-3 48.5t-7 51t-14.5 43.5t-24 38t-36 23.5t-50 9.5q-45 0 -90 -18t-88 -59t-76 -101t-53.5 -151.5t-20.5 -202.5v-457h-154v551q0 337 -49 545zM186 1290 q22 48 43.5 83.5t52.5 69.5t72.5 52t91.5 18q34 0 68 -10.5t52.5 -20.5t58.5 -34q2 -1 36 -21.5t56.5 -30.5t40.5 -10q23 0 41 9t31.5 27.5t21 32.5t18.5 39q3 6 4 9l125 -51q-30 -84 -92 -139.5t-145 -55.5q-47 0 -86 16t-92 48q-1 1 -13.5 9.5t-15.5 10t-14.5 9t-16 9.5 t-15.5 7.5t-17.5 7.5t-15.5 5t-17.5 4t-16.5 1q-24 0 -45 -13t-37.5 -38t-25.5 -42.5t-21 -45.5z" />
<glyph unicode="&#xf2;" d="M180 547q0 123 25.5 222t67 163t98.5 107t117.5 61t125.5 18q80 0 146 -22.5t110 -59t78 -87.5t53 -102t31 -109.5t15.5 -102.5t3.5 -88q0 -123 -25.5 -221.5t-67.5 -162.5t-99.5 -107t-118 -61t-126.5 -18q-61 0 -118.5 16.5t-116 57.5t-102 103.5t-70.5 164t-27 228.5z M334 547q0 -63 6 -118.5t24 -117t47.5 -105t81.5 -72t121 -28.5q58 0 104 19t76 54t51 76.5t32 94t15.5 99t4.5 98.5t-4.5 98.5t-15.5 99t-32 94.5t-51 77t-76 54t-104 19q-69 0 -121 -28.5t-81.5 -72t-47.5 -105.5t-24 -117.5t-6 -118.5zM375 1460l110 127l363 -291 l-78 -100z" />
<glyph unicode="&#xf3;" d="M180 547q0 123 25.5 222t67 163t98.5 107t117.5 61t125.5 18q80 0 146 -22.5t110 -59t78 -87.5t53 -102t31 -109.5t15.5 -102.5t3.5 -88q0 -123 -25.5 -221.5t-67.5 -162.5t-99.5 -107t-118 -61t-126.5 -18q-61 0 -118.5 16.5t-116 57.5t-102 103.5t-70.5 164t-27 228.5z M334 547q0 -63 6 -118.5t24 -117t47.5 -105t81.5 -72t121 -28.5q58 0 104 19t76 54t51 76.5t32 94t15.5 99t4.5 98.5t-4.5 98.5t-15.5 99t-32 94.5t-51 77t-76 54t-104 19q-69 0 -121 -28.5t-81.5 -72t-47.5 -105.5t-24 -117.5t-6 -118.5zM422 1296l362 291l111 -127 l-395 -264z" />
<glyph unicode="&#xf4;" d="M180 547q0 123 25.5 222t67 163t98.5 107t117.5 61t125.5 18q80 0 146 -22.5t110 -59t78 -87.5t53 -102t31 -109.5t15.5 -102.5t3.5 -88q0 -123 -25.5 -221.5t-67.5 -162.5t-99.5 -107t-118 -61t-126.5 -18q-61 0 -118.5 16.5t-116 57.5t-102 103.5t-70.5 164t-27 228.5z M248 1278l366 313l367 -313l-80 -88l-287 211l-284 -211zM334 547q0 -63 6 -118.5t24 -117t47.5 -105t81.5 -72t121 -28.5q58 0 104 19t76 54t51 76.5t32 94t15.5 99t4.5 98.5t-4.5 98.5t-15.5 99t-32 94.5t-51 77t-76 54t-104 19q-69 0 -121 -28.5t-81.5 -72t-47.5 -105.5 t-24 -117.5t-6 -118.5z" />
<glyph unicode="&#xf5;" d="M180 547q0 123 25.5 222t67 163t98.5 107t117.5 61t125.5 18q80 0 146 -22.5t110 -59t78 -87.5t53 -102t31 -109.5t15.5 -102.5t3.5 -88q0 -123 -25.5 -221.5t-67.5 -162.5t-99.5 -107t-118 -61t-126.5 -18q-61 0 -118.5 16.5t-116 57.5t-102 103.5t-70.5 164t-27 228.5z M207 1290q22 48 43.5 83.5t52.5 69.5t72.5 52t91.5 18q34 0 68 -10.5t51.5 -20t58.5 -34.5q2 -1 36 -21.5t56.5 -30.5t40.5 -10q20 0 37 8.5t26.5 16.5t22.5 30t16 29t15 33l125 -51q-30 -84 -92.5 -139.5t-145.5 -55.5q-47 0 -86 16t-92 48q-2 1 -15.5 10t-17 11.5t-16 10 t-18.5 10.5t-17.5 8t-19 7t-18 4t-19.5 2q-24 0 -45 -13t-37.5 -38t-25.5 -42.5t-21 -45.5zM334 547q0 -63 6 -118.5t24 -117t47.5 -105t81.5 -72t121 -28.5q58 0 104 19t76 54t51 76.5t32 94t15.5 99t4.5 98.5t-4.5 98.5t-15.5 99t-32 94.5t-51 77t-76 54t-104 19 q-69 0 -121 -28.5t-81.5 -72t-47.5 -105.5t-24 -117.5t-6 -118.5z" />
<glyph unicode="&#xf6;" d="M180 547q0 123 25.5 222t67 163t98.5 107t117.5 61t125.5 18q80 0 146 -22.5t110 -59t78 -87.5t53 -102t31 -109.5t15.5 -102.5t3.5 -88q0 -123 -25.5 -221.5t-67.5 -162.5t-99.5 -107t-118 -61t-126.5 -18q-61 0 -118.5 16.5t-116 57.5t-102 103.5t-70.5 164t-27 228.5z M289 1389q0 58 41.5 97.5t99.5 39.5t99.5 -39.5t41.5 -97.5t-41.5 -98t-99.5 -40t-99.5 40t-41.5 98zM334 547q0 -63 6 -118.5t24 -117t47.5 -105t81.5 -72t121 -28.5q58 0 104 19t76 54t51 76.5t32 94t15.5 99t4.5 98.5t-4.5 98.5t-15.5 99t-32 94.5t-51 77t-76 54t-104 19 q-69 0 -121 -28.5t-81.5 -72t-47.5 -105.5t-24 -117.5t-6 -118.5zM655 1389q0 58 42 97.5t100 39.5t99.5 -39.5t41.5 -97.5t-41.5 -98t-99.5 -40t-100 40t-42 98z" />
<glyph unicode="&#xf7;" d="M51 670v135h1127v-135h-1127zM502 430q0 46 33 79.5t79 33.5t79.5 -33.5t33.5 -79.5t-33.5 -79.5t-79.5 -33.5t-79 33.5t-33 79.5zM502 1044q0 46 33 79.5t79 33.5t79.5 -33.5t33.5 -79.5t-33.5 -79t-79.5 -33t-79 33t-33 79z" />
<glyph unicode="&#xf8;" d="M180 547q0 152 38.5 267t103 179t138.5 94.5t156 30.5q122 0 222 -65l71 116l109 -75l-82 -131q117 -148 117 -416q0 -152 -38.5 -266.5t-103 -178.5t-139 -94.5t-156.5 -30.5q-126 0 -235 74l-72 -121l-108 74l86 139q-107 146 -107 404zM334 535q0 -140 39 -248 l397 651q-66 51 -154 51q-282 0 -282 -454zM451 164q69 -58 165 -58q283 0 283 453q0 149 -45 266z" />
<glyph unicode="&#xf9;" d="M233 334v762h154v-717q0 -36 1 -56.5t4 -58.5t12 -61t23 -48t38.5 -37t56.5 -12q47 0 92.5 20t88.5 64t75.5 106t52 153t19.5 198v449h154v-531q0 -362 47 -565h-146l-35 211q-57 -96 -158 -165t-202 -69q-93 0 -157.5 50.5t-92 129t-27.5 177.5zM334 1460l110 127 l363 -291l-78 -100z" />
<glyph unicode="&#xfa;" d="M233 334v762h154v-717q0 -36 1 -56.5t4 -58.5t12 -61t23 -48t38.5 -37t56.5 -12q47 0 92.5 20t88.5 64t75.5 106t52 153t19.5 198v449h154v-531q0 -362 47 -565h-146l-35 211q-57 -96 -158 -165t-202 -69q-93 0 -157.5 50.5t-92 129t-27.5 177.5zM422 1296l362 291 l111 -127l-395 -264z" />
<glyph unicode="&#xfb;" d="M233 334v762h154v-717q0 -36 1 -56.5t4 -58.5t12 -61t23 -48t38.5 -37t56.5 -12q47 0 92.5 20t88.5 64t75.5 106t52 153t19.5 198v449h154v-531q0 -362 47 -565h-146l-35 211q-57 -96 -158 -165t-202 -69q-93 0 -157.5 50.5t-92 129t-27.5 177.5zM248 1278l366 313 l367 -313l-80 -88l-287 211l-284 -211z" />
<glyph unicode="&#xfc;" d="M233 334v762h154v-717q0 -36 1 -56.5t4 -58.5t12 -61t23 -48t38.5 -37t56.5 -12q47 0 92.5 20t88.5 64t75.5 106t52 153t19.5 198v449h154v-531q0 -362 47 -565h-146l-35 211q-57 -96 -158 -165t-202 -69q-93 0 -157.5 50.5t-92 129t-27.5 177.5zM289 1389 q0 58 41.5 97.5t99.5 39.5t99.5 -39.5t41.5 -97.5t-41.5 -98t-99.5 -40t-99.5 40t-41.5 98zM655 1389q0 58 42 97.5t100 39.5t99.5 -39.5t41.5 -97.5t-41.5 -98t-99.5 -40t-100 40t-42 98z" />
<glyph unicode="&#xfd;" d="M31 -96l129 67q11 -28 17.5 -44.5t21.5 -45t29.5 -44.5t36 -29t44.5 -13q30 0 56.5 17.5t49 52.5t33 56t27.5 59l72 165l-352 951h165l267 -746l284 746h164l-405 -1028q-20 -52 -34.5 -86t-40.5 -87t-53.5 -88.5t-62.5 -70.5t-78.5 -52.5t-91.5 -17.5q-101 0 -174 67.5 t-104 170.5zM422 1296l362 291l111 -127l-395 -264z" />
<glyph unicode="&#xfe;" d="M233 -420v1940h154v-504q105 102 240 102q61 0 120 -18t118 -61.5t103 -108t71.5 -165t27.5 -224.5q0 -119 -29.5 -217.5t-76.5 -161.5t-107 -106t-118.5 -61t-114.5 -18q-112 0 -234 64v-461h-154zM387 197q113 -91 209 -91q140 0 228.5 116.5t88.5 324.5 q0 102 -20.5 183t-51.5 128t-71.5 78t-76 42t-68.5 11q-86 0 -141.5 -51t-96.5 -139v-602z" />
<glyph unicode="&#xff;" d="M31 -96l129 67q11 -28 17.5 -44.5t21.5 -45t29.5 -44.5t36 -29t44.5 -13q30 0 56.5 17.5t49 52.5t33 56t27.5 59l72 165l-352 951h165l267 -746l284 746h164l-405 -1028q-20 -52 -34.5 -86t-40.5 -87t-53.5 -88.5t-62.5 -70.5t-78.5 -52.5t-91.5 -17.5q-101 0 -174 67.5 t-104 170.5zM289 1389q0 58 41.5 97.5t99.5 39.5t99.5 -39.5t41.5 -97.5t-41.5 -98t-99.5 -40t-99.5 40t-41.5 98zM655 1389q0 58 42 97.5t100 39.5t99.5 -39.5t41.5 -97.5t-41.5 -98t-99.5 -40t-100 40t-42 98z" />
<glyph unicode="&#x152;" d="M61 748q0 232 29 363q85 392 432 392q72 0 154 -28h534v-129h-415v-519h282v-129h-282v-569h432v-129h-551q-33 -13 -80 -23q-40 -6 -82 -6q-71 0 -130 16.5t-102.5 43.5t-78 70t-57 86.5t-39 103.5t-25.5 110.5t-14 118t-6 115.5t-1 113zM215 752q0 -161 14.5 -278.5 t39.5 -188.5t64.5 -113t82 -57t100.5 -15q54 0 125 29v1214q-86 31 -125 31q-50 0 -91 -15t-81 -56.5t-67.5 -109t-44.5 -180t-17 -261.5z" />
<glyph unicode="&#x153;" d="M82 547q0 124 23.5 224.5t61 163.5t87.5 105.5t99.5 60t99.5 17.5q64 0 168 -59q48 32 87 45.5t93 13.5q24 0 50 -4.5t60 -19t64 -37t60 -62t51.5 -91t35 -128t13.5 -168.5v-98h-449v-227q0 -33 1 -51t6.5 -46t16.5 -42.5t33 -26t54 -11.5q48 0 111 24t93.5 41.5 t100.5 59.5l55 -127q-102 -60 -190.5 -93.5t-180.5 -33.5q-55 0 -95.5 16t-84.5 52q-40 -33 -73.5 -50.5t-71.5 -17.5q-50 0 -100 17t-101.5 59.5t-90 105.5t-63 163.5t-24.5 224.5zM236 547q0 -121 22 -212t56 -138t67 -69t63 -22q52 0 88 58v794q-39 27 -61 30q-6 1 -12 1 q-26 0 -53.5 -11.5t-58.5 -42.5t-55 -78.5t-40 -128t-16 -181.5zM686 639h295q-1 42 -5.5 84t-17.5 92t-33.5 87t-56.5 62t-82 25q-54 0 -77 -38.5t-23 -131.5v-180z" />
<glyph unicode="&#x178;" d="M123 1475h170l285 -668l282 668h170l-377 -852v-623h-153v623zM248 1767q0 58 41.5 98t99.5 40t99.5 -40t41.5 -98t-41.5 -97.5t-99.5 -39.5t-99.5 39.5t-41.5 97.5zM614 1767q0 58 42 98t100 40t99.5 -40t41.5 -98t-41.5 -97.5t-99.5 -39.5t-100 39.5t-42 97.5z" />
<glyph unicode="&#x2c6;" d="M248 1278l366 313l367 -313l-80 -88l-287 211l-284 -211z" />
<glyph unicode="&#x2dc;" d="M207 1290q22 48 43.5 83.5t52.5 69.5t72.5 52t91.5 18q34 0 68 -10.5t51.5 -20t58.5 -34.5q2 -1 36 -21.5t56.5 -30.5t40.5 -10q20 0 37 8.5t26.5 16.5t22.5 30t16 29t15 33l125 -51q-30 -84 -92.5 -139.5t-145.5 -55.5q-47 0 -86 16t-92 48q-2 1 -15.5 10t-17 11.5 t-16 10t-18.5 10.5t-17.5 8t-19 7t-18 4t-19.5 2q-24 0 -45 -13t-37.5 -38t-25.5 -42.5t-21 -45.5z" />
<glyph unicode="&#x2000;" horiz-adv-x="996" />
<glyph unicode="&#x2001;" horiz-adv-x="1993" />
<glyph unicode="&#x2002;" horiz-adv-x="996" />
<glyph unicode="&#x2003;" horiz-adv-x="1993" />
<glyph unicode="&#x2004;" horiz-adv-x="664" />
<glyph unicode="&#x2005;" horiz-adv-x="498" />
<glyph unicode="&#x2006;" horiz-adv-x="332" />
<glyph unicode="&#x2007;" horiz-adv-x="332" />
<glyph unicode="&#x2008;" horiz-adv-x="249" />
<glyph unicode="&#x2009;" horiz-adv-x="398" />
<glyph unicode="&#x200a;" horiz-adv-x="110" />
<glyph unicode="&#x2010;" d="M348 670v129h533v-129h-533z" />
<glyph unicode="&#x2011;" d="M348 670v129h533v-129h-533z" />
<glyph unicode="&#x2012;" d="M348 670v129h533v-129h-533z" />
<glyph unicode="&#x2013;" d="M254 670v129h721v-129h-721z" />
<glyph unicode="&#x2014;" d="M0 670v129h1229v-129h-1229z" />
<glyph unicode="&#x2018;" d="M469 1184q0 62 29.5 117t78.5 94.5t105 66.5t115 41v-139q-78 -16 -131 -66q58 -5 96.5 -44t38.5 -97q0 -70 -46 -115t-116 -45q-74 0 -122 56t-48 131z" />
<glyph unicode="&#x2019;" d="M471 1343q0 70 46 115t116 45q74 0 122 -55.5t48 -130.5q0 -62 -29.5 -117t-78.5 -94.5t-105 -67t-115 -41.5v140q79 16 131 65q-58 5 -96.5 44t-38.5 97z" />
<glyph unicode="&#x201a;" d="M449 117q0 70 45.5 114.5t115.5 44.5q74 0 122 -55.5t48 -130.5q0 -62 -29.5 -117t-78 -94.5t-104.5 -66.5t-115 -41v139q79 16 131 65q-58 5 -96.5 44.5t-38.5 97.5z" />
<glyph unicode="&#x201c;" d="M246 1184q0 62 29.5 117t78 94.5t104.5 66.5t115 41v-139q-78 -16 -131 -66q58 -5 97 -44t39 -97q0 -70 -46 -115t-116 -45q-74 0 -122 56t-48 131zM692 1184q0 62 29.5 117t78.5 94.5t105 66.5t115 41v-139q-78 -16 -131 -66q58 -5 96.5 -44t38.5 -97q0 -70 -46 -115 t-116 -45q-74 0 -122 56t-48 131z" />
<glyph unicode="&#x201d;" d="M246 1343q0 70 46 115t116 45q74 0 122 -55.5t48 -130.5q0 -62 -29.5 -117t-78.5 -94.5t-105 -67t-115 -41.5v140q79 16 131 65q-58 5 -96.5 44t-38.5 97zM692 1343q0 70 46 115t116 45q74 0 122 -55.5t48 -130.5q0 -62 -29.5 -117t-78.5 -94.5t-105 -67t-115 -41.5v140 q79 16 131 65q-58 5 -96.5 44t-38.5 97z" />
<glyph unicode="&#x201e;" d="M246 117q0 70 46 114.5t116 44.5q74 0 122 -55.5t48 -130.5q0 -62 -29.5 -117t-78.5 -94.5t-105 -66.5t-115 -41v139q79 16 131 65q-58 5 -96.5 44.5t-38.5 97.5zM692 117q0 70 46 114.5t116 44.5q74 0 122 -55.5t48 -130.5q0 -62 -29.5 -117t-78.5 -94.5t-105 -66.5 t-115 -41v139q79 16 131 65q-58 5 -96.5 44.5t-38.5 97.5z" />
<glyph unicode="&#x2022;" d="M410 786q0 84 60 141.5t144 57.5t144.5 -57.5t60.5 -141.5t-60.5 -141t-144.5 -57t-144 57t-60 141z" />
<glyph unicode="&#x2026;" d="M57 115q0 61 44.5 102t105.5 41t104 -41t43 -102q0 -60 -43.5 -102t-103.5 -42q-62 0 -106 42t-44 102zM467 115q0 61 44 102t105 41t104.5 -41t43.5 -102q0 -60 -44 -102t-104 -42q-62 0 -105.5 42t-43.5 102zM877 115q0 61 44 102t105 41t104.5 -41t43.5 -102 q0 -60 -44 -102t-104 -42q-62 0 -105.5 42t-43.5 102z" />
<glyph unicode="&#x202f;" horiz-adv-x="398" />
<glyph unicode="&#x2039;" d="M244 729l559 531l96 -99l-459 -432l459 -432l-96 -102z" />
<glyph unicode="&#x203a;" d="M330 297l458 432l-458 432l96 99l561 -531l-561 -534z" />
<glyph unicode="&#x205f;" horiz-adv-x="498" />
<glyph unicode="&#x20ac;" d="M119 555l26 145h88v29q0 34 3 64h-117l26 145h101q9 90 28 166.5t55 152t86.5 128.5t128 85.5t173.5 32.5q154 0 257.5 -97t112.5 -251h-153q-2 93 -62 156t-153 63q-66 0 -119 -26t-87.5 -67t-59.5 -100t-37.5 -117t-18.5 -126h432l-26 -145h-414q-2 -27 -2 -68 q0 -15 2 -25h397l-26 -145h-365q5 -68 16 -127.5t34.5 -121.5t56 -106t85 -72t118.5 -28q112 0 178.5 74t68.5 186h154q-12 -182 -118.5 -285.5t-289.5 -103.5q-97 0 -173.5 34.5t-125 89.5t-83 133.5t-51 157t-23.5 169.5h-123z" />
<glyph unicode="&#x2122;" d="M10 1409v111h484v-111h-175v-459h-135v459h-174zM563 950v570h199l129 -336l127 336h199v-570h-123v459h-4l-162 -459h-74l-166 459h-2v-459h-123z" />
<glyph unicode="&#xe000;" horiz-adv-x="1095" d="M0 0v1096h1096v-1096h-1096z" />
<glyph unicode="&#xfb01;" d="M68 969v129h202v65q0 78 28 143.5t74.5 107.5t106.5 65.5t125 23.5q32 0 66.5 -5t58 -10t64 -19t56 -20t62 -25t56.5 -23v-170q-24 12 -80 42.5t-92.5 49t-87.5 35t-93 16.5q-55 0 -93.5 -17t-59 -49t-29 -70t-8.5 -87v-53h563v-1098h-153v969h-410v-969h-154v969h-202z " />
<glyph unicode="&#xfb02;" d="M61 969v129h203v65q0 78 28 143.5t74.5 107.5t106.5 65.5t125 23.5q92 0 185 -30t231 -93v-1380h-154v1288q-11 5 -45.5 22t-51.5 25t-46 19t-53.5 15.5t-49.5 4.5q-102 0 -149 -57.5t-47 -151.5v-67h297v-129h-297v-969h-154v969h-203z" />
</font>
</defs>
</svg>
